<?xml version="1.0" standalone="yes"?>

<svg version="1.1" viewBox="0.0 0.0 392.2755905511811 385.33858267716533" fill="none" stroke="none" stroke-linecap="square" stroke-miterlimit="10" xmlns="http://www.w3.org/2000/svg" xmlns:xlink="http://www.w3.org/1999/xlink"><clipPath id="p.0"><path d="m0 0l392.2756 0l0 385.3386l-392.2756 0l0 -385.3386z" clip-rule="nonzero"></path></clipPath><g clip-path="url(#p.0)"><path fill="#000000" fill-opacity="0.0" d="m0 0l392.2756 0l0 385.3386l-392.2756 0z" fill-rule="evenodd"></path><path fill="#cfd8dc" d="m42.87664 51.09449l82.86614 0l0 78.74015l-82.86614 0z" fill-rule="evenodd"></path><path stroke="#004065" stroke-width="4.0" stroke-linejoin="round" stroke-linecap="butt" d="m42.87664 51.09449l82.86614 0l0 78.74015l-82.86614 0z" fill-rule="evenodd"></path><path fill="#cfd8dc" d="m125.75131 51.09449l82.866135 0l0 78.74015l-82.866135 0z" fill-rule="evenodd"></path><path stroke="#004065" stroke-width="4.0" stroke-linejoin="round" stroke-linecap="butt" d="m125.75131 51.09449l82.866135 0l0 78.74015l-82.866135 0z" fill-rule="evenodd"></path><path fill="#cfd8dc" d="m208.62599 51.09449l82.866135 0l0 78.74015l-82.866135 0z" fill-rule="evenodd"></path><path stroke="#004065" stroke-width="4.0" stroke-linejoin="round" stroke-linecap="butt" d="m208.62599 51.09449l82.866135 0l0 78.74015l-82.866135 0z" fill-rule="evenodd"></path><path fill="#cfd8dc" d="m291.50067 51.09449l82.86612 0l0 78.74015l-82.86612 0z" fill-rule="evenodd"></path><path stroke="#004065" stroke-width="4.0" stroke-linejoin="round" stroke-linecap="butt" d="m291.50067 51.09449l82.86612 0l0 78.74015l-82.86612 0z" fill-rule="evenodd"></path><path fill="#cfd8dc" d="m42.87664 129.84448l82.86614 0l0 78.74016l-82.86614 0z" fill-rule="evenodd"></path><path stroke="#004065" stroke-width="4.0" stroke-linejoin="round" stroke-linecap="butt" d="m42.87664 129.84448l82.86614 0l0 78.74016l-82.86614 0z" fill-rule="evenodd"></path><path fill="#004065" d="m125.75131 129.84448l82.866135 0l0 78.74016l-82.866135 0z" fill-rule="evenodd"></path><path stroke="#004065" stroke-width="4.0" stroke-linejoin="round" stroke-linecap="butt" d="m125.75131 129.84448l82.866135 0l0 78.74016l-82.866135 0z" fill-rule="evenodd"></path><path fill="#000000" d="m140.86407 198.01456l22.140625 -29.84375l-19.53125 -27.421875l9.03125 0l10.390625 14.6875q3.234375 4.5625 4.609375 7.03125q1.90625 -3.125 4.53125 -6.53125l11.515625 -15.1875l8.25 0l-20.125 26.984375l21.6875 30.28125l-9.375 0l-14.421875 -20.4375q-1.203125 -1.75 -2.5 -3.828125q-1.90625 3.125 -2.734375 4.296875l-14.375 19.96875l-9.09375 0z" fill-rule="nonzero"></path><path fill="#ea9999" d="m208.62599 129.84448l82.866135 0l0 78.74016l-82.866135 0z" fill-rule="evenodd"></path><path stroke="#004065" stroke-width="4.0" stroke-linejoin="round" stroke-linecap="butt" d="m208.62599 129.84448l82.866135 0l0 78.74016l-82.866135 0z" fill-rule="evenodd"></path><path fill="#000000" d="m229.38718 172.17894l0 -1.859375l5.671875 0l0 1.859375l-5.671875 0zm14.258682 4.515625l-1.84375 0l0 -11.765625q-0.671875 0.640625 -1.765625 1.28125q-1.078125 0.625 -1.9375 0.953125l0 -1.796875q1.546875 -0.71875 2.703125 -1.75q1.171875 -1.046875 1.65625 -2.015625l1.1875 0l0 15.09375zm4.9085693 -7.40625q0 -2.671875 0.546875 -4.296875q0.546875 -1.625 1.625 -2.5q1.078125 -0.890625 2.71875 -0.890625q1.21875 0 2.125 0.484375q0.92185974 0.484375 1.5156097 1.40625q0.59375 0.921875 0.921875 2.234375q0.34375 1.3125 0.34375 3.5625q0 2.640625 -0.546875 4.265625q-0.53125 1.625 -1.625 2.515625q-1.0781097 0.875 -2.7343597 0.875q-2.171875 0 -3.40625 -1.546875q-1.484375 -1.875 -1.484375 -6.109375zm1.890625 0q0 3.6875 0.859375 4.921875q0.875 1.21875 2.140625 1.21875q1.28125 0 2.140625 -1.21875q0.87498474 -1.234375 0.87498474 -4.921875q0 -3.71875 -0.87498474 -4.9375q-0.859375 -1.21875 -2.15625 -1.21875q-1.265625 0 -2.03125 1.078125q-0.953125 1.375 -0.953125 5.078125zm9.971054 0q0 -2.671875 0.546875 -4.296875q0.546875 -1.625 1.625 -2.5q1.078125 -0.890625 2.71875 -0.890625q1.21875 0 2.125 0.484375q0.921875 0.484375 1.515625 1.40625q0.59375 0.921875 0.921875 2.234375q0.34375 1.3125 0.34375 3.5625q0 2.640625 -0.546875 4.265625q-0.53125 1.625 -1.625 2.515625q-1.078125 0.875 -2.734375 0.875q-2.171875 0 -3.40625 -1.546875q-1.484375 -1.875 -1.484375 -6.109375zm1.890625 0q0 3.6875 0.859375 4.921875q0.875 1.21875 2.140625 1.21875q1.28125 0 2.140625 -1.21875q0.875 -1.234375 0.875 -4.921875q0 -3.71875 -0.875 -4.9375q-0.859375 -1.21875 -2.15625 -1.21875q-1.265625 0 -2.03125 1.078125q-0.953125 1.375 -0.953125 5.078125z" fill-rule="nonzero"></path><path fill="#b6d7a8" d="m291.50067 129.84448l82.86612 0l0 78.74016l-82.86612 0z" fill-rule="evenodd"></path><path stroke="#004065" stroke-width="4.0" stroke-linejoin="round" stroke-linecap="butt" d="m291.50067 129.84448l82.86612 0l0 78.74016l-82.86612 0z" fill-rule="evenodd"></path><path fill="#000000" d="m314.17917 174.25706l0 -4.109375l-4.09375 0l0 -1.734375l4.09375 0l0 -4.078125l1.734375 0l0 4.078125l4.09375 0l0 1.734375l-4.09375 0l0 4.109375l-1.734375 0zm15.017792 2.4375l-1.84375 0l0 -11.765625q-0.671875 0.640625 -1.765625 1.28125q-1.078125 0.625 -1.9375 0.953125l0 -1.796875q1.546875 -0.71875 2.703125 -1.75q1.171875 -1.046875 1.65625 -2.015625l1.1875 0l0 15.09375zm4.9085693 -7.40625q0 -2.671875 0.546875 -4.296875q0.546875 -1.625 1.625 -2.5q1.078125 -0.890625 2.71875 -0.890625q1.21875 0 2.125 0.484375q0.921875 0.484375 1.515625 1.40625q0.59375 0.921875 0.921875 2.234375q0.34375 1.3125 0.34375 3.5625q0 2.640625 -0.546875 4.265625q-0.53125 1.625 -1.625 2.515625q-1.078125 0.875 -2.734375 0.875q-2.171875 0 -3.40625 -1.546875q-1.484375 -1.875 -1.484375 -6.109375zm1.890625 0q0 3.6875 0.859375 4.921875q0.875 1.21875 2.140625 1.21875q1.28125 0 2.140625 -1.21875q0.875 -1.234375 0.875 -4.921875q0 -3.71875 -0.875 -4.9375q-0.859375 -1.21875 -2.15625 -1.21875q-1.265625 0 -2.03125 1.078125q-0.953125 1.375 -0.953125 5.078125zm9.971069 0q0 -2.671875 0.546875 -4.296875q0.546875 -1.625 1.625 -2.5q1.078125 -0.890625 2.71875 -0.890625q1.21875 0 2.125 0.484375q0.921875 0.484375 1.515625 1.40625q0.59375 0.921875 0.921875 2.234375q0.34375 1.3125 0.34375 3.5625q0 2.640625 -0.546875 4.265625q-0.53125 1.625 -1.625 2.515625q-1.078125 0.875 -2.734375 0.875q-2.171875 0 -3.40625 -1.546875q-1.484375 -1.875 -1.484375 -6.109375zm1.890625 0q0 3.6875 0.859375 4.921875q0.875 1.21875 2.140625 1.21875q1.28125 0 2.140625 -1.21875q0.875 -1.234375 0.875 -4.921875q0 -3.71875 -0.875 -4.9375q-0.859375 -1.21875 -2.15625 -1.21875q-1.265625 0 -2.03125 1.078125q-0.953125 1.375 -0.953125 5.078125z" fill-rule="nonzero"></path><path fill="#cfd8dc" d="m42.87664 208.59448l82.86614 0l0 78.74017l-82.86614 0z" fill-rule="evenodd"></path><path stroke="#004065" stroke-width="4.0" stroke-linejoin="round" stroke-linecap="butt" d="m42.87664 208.59448l82.86614 0l0 78.74017l-82.86614 0z" fill-rule="evenodd"></path><path fill="#cfd8dc" d="m125.75131 208.59448l82.866135 0l0 78.74017l-82.866135 0z" fill-rule="evenodd"></path><path stroke="#004065" stroke-width="4.0" stroke-linejoin="round" stroke-linecap="butt" d="m125.75131 208.59448l82.866135 0l0 78.74017l-82.866135 0z" fill-rule="evenodd"></path><path fill="#cfd8dc" d="m208.62599 208.59448l82.866135 0l0 78.74017l-82.866135 0z" fill-rule="evenodd"></path><path stroke="#004065" stroke-width="4.0" stroke-linejoin="round" stroke-linecap="butt" d="m208.62599 208.59448l82.866135 0l0 78.74017l-82.866135 0z" fill-rule="evenodd"></path><path fill="#cfd8dc" d="m291.50067 208.59448l82.86612 0l0 78.74017l-82.86612 0z" fill-rule="evenodd"></path><path stroke="#004065" stroke-width="4.0" stroke-linejoin="round" stroke-linecap="butt" d="m291.50067 208.59448l82.86612 0l0 78.74017l-82.86612 0z" fill-rule="evenodd"></path><path fill="#cfd8dc" d="m42.87664 287.34448l82.86614 0l0 78.74017l-82.86614 0z" fill-rule="evenodd"></path><path stroke="#004065" stroke-width="4.0" stroke-linejoin="round" stroke-linecap="butt" d="m42.87664 287.34448l82.86614 0l0 78.74017l-82.86614 0z" fill-rule="evenodd"></path><path fill="#000000" d="m61.223774 337.1083l7.156254 -0.625q0.5 4.296875 2.359375 7.0625q1.859375 2.75 5.765625 4.453125q3.90625 1.6875 8.78125 1.6875q4.34375 0 7.65625 -1.28125q3.328125 -1.296875 4.9375 -3.53125q1.625 -2.25 1.625 -4.90625q0 -2.703125 -1.5625 -4.703125q-1.5625 -2.015625 -5.15625 -3.390625q-2.296875 -0.890625 -10.1875 -2.78125q-7.890625 -1.90625 -11.0625 -3.578125q-4.09375 -2.15625 -6.109375 -5.328125q-2.0156288 -3.1875 -2.0156288 -7.140625q0 -4.328125 2.4531288 -8.09375q2.46875 -3.78125 7.1875 -5.734375q4.734375 -1.953125 10.515625 -1.953125q6.375 0 11.234375 2.0625q4.859375 2.046875 7.46875 6.03125q2.625 3.984375 2.828125 9.015625l-7.265625 0.546875q-0.59375 -5.421875 -3.96875 -8.1875q-3.375 -2.78125 -9.984375 -2.78125q-6.875 0 -10.015625 2.515625q-3.140625 2.515625 -3.140625 6.078125q0 3.078125 2.21875 5.078125q2.1875 1.984375 11.421875 4.078125q9.25 2.09375 12.6875 3.65625q5.0 2.296875 7.375 5.84375q2.390625 3.53125 2.390625 8.140625q0 4.5625 -2.625 8.609375q-2.609375 4.046875 -7.515625 6.296875q-4.90625 2.25 -11.03125 2.25q-7.78125 0 -13.03125 -2.265625q-5.25 -2.28125 -8.25 -6.828125q-2.9843788 -4.546875 -3.1406288 -10.296875z" fill-rule="nonzero"></path><path fill="#004065" d="m125.75131 287.34448l82.866135 0l0 78.74017l-82.866135 0z" fill-rule="evenodd"></path><path stroke="#004065" stroke-width="4.0" stroke-linejoin="round" stroke-linecap="butt" d="m125.75131 287.34448l82.866135 0l0 78.74017l-82.866135 0z" fill-rule="evenodd"></path><path fill="#000000" d="m140.86407 355.51456l22.140625 -29.84375l-19.53125 -27.421875l9.03125 0l10.390625 14.6875q3.234375 4.5625 4.609375 7.03125q1.90625 -3.125 4.53125 -6.53125l11.515625 -15.1875l8.25 0l-20.125 26.984375l21.6875 30.28125l-9.375 0l-14.421875 -20.4375q-1.203125 -1.75 -2.5 -3.828125q-1.90625 3.125 -2.734375 4.296875l-14.375 19.96875l-9.09375 0z" fill-rule="nonzero"></path><path fill="#ea9999" d="m208.62599 287.34448l82.866135 0l0 78.74017l-82.866135 0z" fill-rule="evenodd"></path><path stroke="#004065" stroke-width="4.0" stroke-linejoin="round" stroke-linecap="butt" d="m208.62599 287.34448l82.866135 0l0 78.74017l-82.866135 0z" fill-rule="evenodd"></path><path fill="#000000" d="m229.38718 329.67896l0 -1.859375l5.671875 0l0 1.859375l-5.671875 0zm14.258682 4.515625l-1.84375 0l0 -11.765625q-0.671875 0.640625 -1.765625 1.28125q-1.078125 0.625 -1.9375 0.953125l0 -1.796875q1.546875 -0.71875 2.703125 -1.75q1.171875 -1.046875 1.65625 -2.015625l1.1875 0l0 15.09375zm4.9085693 -7.40625q0 -2.671875 0.546875 -4.296875q0.546875 -1.625 1.625 -2.5q1.078125 -0.890625 2.71875 -0.890625q1.21875 0 2.125 0.484375q0.92185974 0.484375 1.5156097 1.40625q0.59375 0.921875 0.921875 2.234375q0.34375 1.3125 0.34375 3.5625q0 2.640625 -0.546875 4.265625q-0.53125 1.625 -1.625 2.515625q-1.0781097 0.875 -2.7343597 0.875q-2.171875 0 -3.40625 -1.546875q-1.484375 -1.875 -1.484375 -6.109375zm1.890625 0q0 3.6875 0.859375 4.921875q0.875 1.21875 2.140625 1.21875q1.28125 0 2.140625 -1.21875q0.87498474 -1.234375 0.87498474 -4.921875q0 -3.71875 -0.87498474 -4.9375q-0.859375 -1.21875 -2.15625 -1.21875q-1.265625 0 -2.03125 1.078125q-0.953125 1.375 -0.953125 5.078125zm9.971054 0q0 -2.671875 0.546875 -4.296875q0.546875 -1.625 1.625 -2.5q1.078125 -0.890625 2.71875 -0.890625q1.21875 0 2.125 0.484375q0.921875 0.484375 1.515625 1.40625q0.59375 0.921875 0.921875 2.234375q0.34375 1.3125 0.34375 3.5625q0 2.640625 -0.546875 4.265625q-0.53125 1.625 -1.625 2.515625q-1.078125 0.875 -2.734375 0.875q-2.171875 0 -3.40625 -1.546875q-1.484375 -1.875 -1.484375 -6.109375zm1.890625 0q0 3.6875 0.859375 4.921875q0.875 1.21875 2.140625 1.21875q1.28125 0 2.140625 -1.21875q0.875 -1.234375 0.875 -4.921875q0 -3.71875 -0.875 -4.9375q-0.859375 -1.21875 -2.15625 -1.21875q-1.265625 0 -2.03125 1.078125q-0.953125 1.375 -0.953125 5.078125z" fill-rule="nonzero"></path><path fill="#ea9999" d="m291.50067 287.34448l82.86612 0l0 78.74017l-82.86612 0z" fill-rule="evenodd"></path><path stroke="#004065" stroke-width="4.0" stroke-linejoin="round" stroke-linecap="butt" d="m291.50067 287.34448l82.86612 0l0 78.74017l-82.86612 0z" fill-rule="evenodd"></path><path fill="#000000" d="m312.26184 329.67896l0 -1.859375l5.671875 0l0 1.859375l-5.671875 0zm14.2586975 4.515625l-1.84375 0l0 -11.765625q-0.671875 0.640625 -1.765625 1.28125q-1.078125 0.625 -1.9375 0.953125l0 -1.796875q1.546875 -0.71875 2.703125 -1.75q1.171875 -1.046875 1.65625 -2.015625l1.1875 0l0 15.09375zm4.9085693 -7.40625q0 -2.671875 0.546875 -4.296875q0.546875 -1.625 1.625 -2.5q1.078125 -0.890625 2.71875 -0.890625q1.21875 0 2.125 0.484375q0.921875 0.484375 1.515625 1.40625q0.59375 0.921875 0.921875 2.234375q0.34375 1.3125 0.34375 3.5625q0 2.640625 -0.546875 4.265625q-0.53125 1.625 -1.625 2.515625q-1.078125 0.875 -2.734375 0.875q-2.171875 0 -3.40625 -1.546875q-1.484375 -1.875 -1.484375 -6.109375zm1.890625 0q0 3.6875 0.859375 4.921875q0.875 1.21875 2.140625 1.21875q1.28125 0 2.140625 -1.21875q0.875 -1.234375 0.875 -4.921875q0 -3.71875 -0.875 -4.9375q-0.859375 -1.21875 -2.15625 -1.21875q-1.265625 0 -2.03125 1.078125q-0.953125 1.375 -0.953125 5.078125zm9.971069 0q0 -2.671875 0.546875 -4.296875q0.546875 -1.625 1.625 -2.5q1.078125 -0.890625 2.71875 -0.890625q1.21875 0 2.125 0.484375q0.921875 0.484375 1.515625 1.40625q0.59375 0.921875 0.921875 2.234375q0.34375 1.3125 0.34375 3.5625q0 2.640625 -0.546875 4.265625q-0.53125 1.625 -1.625 2.515625q-1.078125 0.875 -2.734375 0.875q-2.171875 0 -3.40625 -1.546875q-1.484375 -1.875 -1.484375 -6.109375zm1.890625 0q0 3.6875 0.859375 4.921875q0.875 1.21875 2.140625 1.21875q1.28125 0 2.140625 -1.21875q0.875 -1.234375 0.875 -4.921875q0 -3.71875 -0.875 -4.9375q-0.859375 -1.21875 -2.15625 -1.21875q-1.265625 0 -2.03125 1.078125q-0.953125 1.375 -0.953125 5.078125z" fill-rule="nonzero"></path><path fill="#000000" fill-opacity="0.0" d="m42.87664 -27.656168l82.86614 0l0 78.74016l-82.86614 0z" fill-rule="evenodd"></path><path fill="#cfd8dc" d="m76.7394 23.507116q0 -4.0625 0.828125 -6.53125q0.84375 -2.484375 2.484375 -3.828125q1.65625 -1.34375 4.15625 -1.34375q1.84375 0 3.234375 0.75q1.390625 0.734375 2.296875 2.140625q0.90625 1.390625 1.421875 3.40625q0.515625 2.0 0.515625 5.40625q0 4.03125 -0.828125 6.515625q-0.828125 2.468752 -2.484375 3.828127q-1.640625 1.34375 -4.15625 1.34375q-3.3125 0 -5.203125 -2.375q-2.265625 -2.859377 -2.265625 -9.312502zm2.890625 0q0 5.640625 1.3125 7.515625q1.328125 1.8593769 3.265625 1.8593769q1.9375 0 3.25 -1.8750019q1.328125 -1.875 1.328125 -7.5q0 -5.65625 -1.328125 -7.515625q-1.3125 -1.859375 -3.28125 -1.859375q-1.9375 0 -3.09375 1.640625q-1.453125 2.09375 -1.453125 7.734375z" fill-rule="nonzero"></path><path fill="#000000" fill-opacity="0.0" d="m125.75131 -27.656168l82.866135 0l0 78.74016l-82.866135 0z" fill-rule="evenodd"></path><path fill="#cfd8dc" d="m170.20782 34.803993l-2.8125 0l0 -17.921877q-1.015625 0.96875 -2.671875 1.9375q-1.640625 0.96875 -2.953125 1.453125l0 -2.71875q2.359375 -1.109375 4.125 -2.6875q1.765625 -1.578125 2.5 -3.0625l1.8125 0l0 23.000002z" fill-rule="nonzero"></path><path fill="#000000" fill-opacity="0.0" d="m208.62599 -27.656168l82.866135 0l0 78.74016l-82.866135 0z" fill-rule="evenodd"></path><path fill="#cfd8dc" d="m257.27 32.10087l0 2.703125l-15.140625 0q-0.03125 -1.015625 0.328125 -1.953125q0.578125 -1.5468769 1.84375 -3.046877q1.28125 -1.5 3.6875 -3.46875q3.734375 -3.0625 5.046875 -4.84375q1.3125 -1.796875 1.3125 -3.390625q0 -1.671875 -1.203125 -2.8125q-1.1875 -1.15625 -3.109375 -1.15625q-2.03125 0 -3.25 1.21875q-1.21875 1.21875 -1.234375 3.375l-2.890625 -0.296875q0.296875 -3.234375 2.234375 -4.921875q1.9375 -1.703125 5.203125 -1.703125q3.296875 0 5.21875 1.828125q1.921875 1.828125 1.921875 4.53125q0 1.375 -0.5625 2.703125q-0.5625 1.328125 -1.875 2.796875q-1.296875 1.46875 -4.328125 4.03125q-2.53125 2.125 -3.25 2.890625q-0.71875 0.75 -1.1875 1.5156269l11.234375 0z" fill-rule="nonzero"></path><path fill="#000000" fill-opacity="0.0" d="m291.50067 -27.656168l82.86612 0l0 78.74016l-82.86612 0z" fill-rule="evenodd"></path><path fill="#cfd8dc" d="m325.37903 28.757116l2.8125 -0.375q0.484375 2.390625 1.640625 3.453125q1.171875 1.0468769 2.84375 1.0468769q1.984375 0 3.34375 -1.3750019q1.375 -1.375 1.375 -3.40625q0 -1.9375 -1.265625 -3.1875q-1.265625 -1.265625 -3.21875 -1.265625q-0.796875 0 -1.984375 0.3125l0.3125 -2.46875q0.28125 0.03125 0.453125 0.03125q1.796875 0 3.234375 -0.9375q1.4375 -0.9375 1.4375 -2.890625q0 -1.546875 -1.046875 -2.5625q-1.046875 -1.015625 -2.703125 -1.015625q-1.640625 0 -2.734375 1.03125q-1.09375 1.03125 -1.40625 3.09375l-2.8125 -0.5q0.515625 -2.828125 2.34375 -4.375q1.828125 -1.5625 4.546875 -1.5625q1.875 0 3.453125 0.8125q1.578125 0.796875 2.40625 2.1875q0.84375 1.390625 0.84375 2.953125q0 1.484375 -0.796875 2.703125q-0.796875 1.21875 -2.359375 1.9375q2.03125 0.46875 3.15625 1.953125q1.125 1.46875 1.125 3.6875q0 3.0 -2.1875 5.093752q-2.1875 2.078125 -5.53125 2.078125q-3.015625 0 -5.015625 -1.796875q-1.984375 -1.7968769 -2.265625 -4.656252z" fill-rule="nonzero"></path><path fill="#000000" fill-opacity="0.0" d="m-40.0 51.095802l82.86614 0l0 78.74015l-82.86614 0z" fill-rule="evenodd"></path><path fill="#cfd8dc" d="m17.397392 90.88901q0 -4.0625 0.828125 -6.53125q0.84375 -2.484375 2.484375 -3.828125q1.65625 -1.34375 4.15625 -1.34375q1.84375 0 3.234375 0.75q1.390625 0.734375 2.296875 2.140625q0.90625 1.390625 1.421875 3.40625q0.515625 2.0 0.515625 5.40625q0 4.03125 -0.828125 6.515625q-0.828125 2.46875 -2.484375 3.828125q-1.640625 1.34375 -4.15625 1.34375q-3.3125 0 -5.203125 -2.375q-2.265625 -2.859375 -2.265625 -9.3125zm2.890625 0q0 5.640625 1.3125 7.515625q1.328125 1.859375 3.265625 1.859375q1.9375 0 3.25 -1.875q1.328125 -1.875 1.328125 -7.5q0 -5.65625 -1.328125 -7.515625q-1.3125 -1.859375 -3.28125 -1.859375q-1.9375 0 -3.09375 1.640625q-1.453125 2.09375 -1.453125 7.734375z" fill-rule="nonzero"></path><path fill="#000000" fill-opacity="0.0" d="m-40.0 129.8458l82.86614 0l0 78.74016l-82.86614 0z" fill-rule="evenodd"></path><path fill="#cfd8dc" d="m27.991142 180.93588l-2.8125 0l0 -17.921875q-1.015625 0.96875 -2.671875 1.9375q-1.640625 0.96875 -2.953125 1.453125l0 -2.71875q2.359375 -1.109375 4.125 -2.6875q1.765625 -1.578125 2.5 -3.0625l1.8125 0l0 23.0z" fill-rule="nonzero"></path><path fill="#000000" fill-opacity="0.0" d="m-40.0 208.5958l82.86614 0l0 78.74017l-82.86614 0z" fill-rule="evenodd"></path><path fill="#cfd8dc" d="m32.178642 256.98276l0 2.703125l-15.140625 0q-0.03125 -1.015625 0.328125 -1.953125q0.578125 -1.546875 1.84375 -3.046875q1.28125 -1.5 3.6875 -3.46875q3.734375 -3.0625 5.046875 -4.84375q1.3125 -1.796875 1.3125 -3.390625q0 -1.671875 -1.203125 -2.8125q-1.1875 -1.15625 -3.109375 -1.15625q-2.03125 0 -3.25 1.21875q-1.21875 1.21875 -1.234375 3.375l-2.890625 -0.296875q0.296875 -3.234375 2.234375 -4.921875q1.9375 -1.703125 5.203125 -1.703125q3.296875 0 5.21875 1.828125q1.921875 1.828125 1.921875 4.53125q0 1.375 -0.5625 2.703125q-0.5625 1.328125 -1.875 2.796875q-1.296875 1.46875 -4.328125 4.03125q-2.53125 2.125 -3.25 2.890625q-0.71875 0.75 -1.1875 1.515625l11.234375 0z" fill-rule="nonzero"></path><path fill="#000000" fill-opacity="0.0" d="m-40.0 287.3458l82.86614 0l0 78.74017l-82.86614 0z" fill-rule="evenodd"></path><path fill="#cfd8dc" d="m17.413017 332.389l2.8125 -0.375q0.484375 2.390625 1.640625 3.453125q1.171875 1.046875 2.84375 1.046875q1.984375 0 3.34375 -1.375q1.375 -1.375 1.375 -3.40625q0 -1.9375 -1.265625 -3.1875q-1.265625 -1.265625 -3.21875 -1.265625q-0.796875 0 -1.984375 0.3125l0.3125 -2.46875q0.28125 0.03125 0.453125 0.03125q1.796875 0 3.234375 -0.9375q1.4375 -0.9375 1.4375 -2.890625q0 -1.546875 -1.046875 -2.5625q-1.046875 -1.015625 -2.703125 -1.015625q-1.640625 0 -2.734375 1.03125q-1.09375 1.03125 -1.40625 3.09375l-2.8125 -0.5q0.515625 -2.828125 2.34375 -4.375q1.828125 -1.5625 4.546875 -1.5625q1.875 0 3.453125 0.8125q1.578125 0.796875 2.40625 2.1875q0.84375 1.390625 0.84375 2.953125q0 1.484375 -0.796875 2.703125q-0.796875 1.21875 -2.359375 1.9375q2.03125 0.46875 3.15625 1.953125q1.125 1.46875 1.125 3.6875q0 3.0 -2.1875 5.09375q-2.1875 2.078125 -5.53125 2.078125q-3.015625 0 -5.015625 -1.796875q-1.984375 -1.796875 -2.265625 -4.65625z" fill-rule="nonzero"></path><path fill="#000000" fill-opacity="0.0" d="m-40.0 -27.654856l82.86614 0l0 78.74016l-82.86614 0z" fill-rule="evenodd"></path></g></svg>

