<?xml version="1.0" standalone="yes"?>

<svg version="1.1" viewBox="0.0 0.0 506.4435695538058 504.84514435695536" fill="none" stroke="none" stroke-linecap="square" stroke-miterlimit="10" xmlns="http://www.w3.org/2000/svg" xmlns:xlink="http://www.w3.org/1999/xlink"><clipPath id="p.0"><path d="m0 0l506.44357 0l0 504.84515l-506.44357 0l0 -504.84515z" clip-rule="nonzero"></path></clipPath><g clip-path="url(#p.0)"><path fill="#000000" fill-opacity="0.0" d="m0 0l506.44357 0l0 504.84515l-506.44357 0z" fill-rule="evenodd"></path><path fill="#cfd8dc" d="m41.491848 54.312828l111.30708 0l0 107.9685l-111.30708 0z" fill-rule="evenodd"></path><path stroke="#004065" stroke-width="4.0" stroke-linejoin="round" stroke-linecap="butt" d="m41.491848 54.312828l111.30708 0l0 107.9685l-111.30708 0z" fill-rule="evenodd"></path><path fill="#cfd8dc" d="m153.10968 54.315453l111.3071 0l0 107.9685l-111.3071 0z" fill-rule="evenodd"></path><path stroke="#004065" stroke-width="4.0" stroke-linejoin="round" stroke-linecap="butt" d="m153.10968 54.315453l111.3071 0l0 107.9685l-111.3071 0z" fill-rule="evenodd"></path><path fill="#cfd8dc" d="m264.16058 54.312828l111.30707 0l0 107.9685l-111.30707 0z" fill-rule="evenodd"></path><path stroke="#004065" stroke-width="4.0" stroke-linejoin="round" stroke-linecap="butt" d="m264.16058 54.312828l111.30707 0l0 107.9685l-111.30707 0z" fill-rule="evenodd"></path><path fill="#cfd8dc" d="m375.49493 54.312828l111.3071 0l0 107.9685l-111.3071 0z" fill-rule="evenodd"></path><path stroke="#004065" stroke-width="4.0" stroke-linejoin="round" stroke-linecap="butt" d="m375.49493 54.312828l111.3071 0l0 107.9685l-111.3071 0z" fill-rule="evenodd"></path><path fill="#cfd8dc" d="m41.491848 162.31769l111.30708 0l0 107.968506l-111.30708 0z" fill-rule="evenodd"></path><path stroke="#004065" stroke-width="4.0" stroke-linejoin="round" stroke-linecap="butt" d="m41.491848 162.31769l111.30708 0l0 107.968506l-111.30708 0z" fill-rule="evenodd"></path><path fill="#004065" d="m152.82622 162.31769l111.30708 0l0 107.968506l-111.30708 0z" fill-rule="evenodd"></path><path stroke="#004065" stroke-width="4.0" stroke-linejoin="round" stroke-linecap="butt" d="m152.82622 162.31769l111.30708 0l0 107.968506l-111.30708 0z" fill-rule="evenodd"></path><path fill="#000000" d="m182.15944 245.10194l22.140625 -29.84375l-19.53125 -27.421875l9.03125 0l10.390625 14.6875q3.234375 4.5625 4.609375 7.03125q1.90625 -3.125 4.53125 -6.53125l11.515625 -15.1875l8.25 0l-20.125 26.984375l21.6875 30.28125l-9.375 0l-14.421875 -20.4375q-1.203125 -1.75 -2.5 -3.828125q-1.90625 3.125 -2.734375 4.296875l-14.375 19.96875l-9.09375 0z" fill-rule="nonzero"></path><path fill="#ea9999" d="m264.16058 162.31769l111.30707 0l0 107.968506l-111.30707 0z" fill-rule="evenodd"></path><path stroke="#004065" stroke-width="4.0" stroke-linejoin="round" stroke-linecap="butt" d="m264.16058 162.31769l111.30707 0l0 107.968506l-111.30707 0z" fill-rule="evenodd"></path><path fill="#000000" d="m299.14224 219.26631l0 -1.859375l5.671875 0l0 1.859375l-5.671875 0zm14.258667 4.515625l-1.84375 0l0 -11.765625q-0.671875 0.640625 -1.765625 1.28125q-1.078125 0.625 -1.9375 0.953125l0 -1.796875q1.546875 -0.71875 2.703125 -1.75q1.171875 -1.046875 1.65625 -2.015625l1.1875 0l0 15.09375zm4.9085693 -7.40625q0 -2.671875 0.546875 -4.296875q0.546875 -1.625 1.625 -2.5q1.078125 -0.890625 2.71875 -0.890625q1.21875 0 2.125 0.484375q0.921875 0.484375 1.515625 1.40625q0.59375 0.921875 0.921875 2.234375q0.34375 1.3125 0.34375 3.5625q0 2.640625 -0.546875 4.265625q-0.53125 1.625 -1.625 2.515625q-1.078125 0.875 -2.734375 0.875q-2.171875 0 -3.40625 -1.546875q-1.484375 -1.875 -1.484375 -6.109375zm1.890625 0q0 3.6875 0.859375 4.921875q0.875 1.21875 2.140625 1.21875q1.28125 0 2.140625 -1.21875q0.875 -1.234375 0.875 -4.921875q0 -3.71875 -0.875 -4.9375q-0.859375 -1.21875 -2.15625 -1.21875q-1.265625 0 -2.03125 1.078125q-0.953125 1.375 -0.953125 5.078125zm9.971069 0q0 -2.671875 0.546875 -4.296875q0.546875 -1.625 1.625 -2.5q1.078125 -0.890625 2.71875 -0.890625q1.21875 0 2.125 0.484375q0.921875 0.484375 1.515625 1.40625q0.59375 0.921875 0.921875 2.234375q0.34375 1.3125 0.34375 3.5625q0 2.640625 -0.546875 4.265625q-0.53125 1.625 -1.625 2.515625q-1.078125 0.875 -2.734375 0.875q-2.171875 0 -3.40625 -1.546875q-1.484375 -1.875 -1.484375 -6.109375zm1.890625 0q0 3.6875 0.859375 4.921875q0.875 1.21875 2.140625 1.21875q1.28125 0 2.140625 -1.21875q0.875 -1.234375 0.875 -4.921875q0 -3.71875 -0.875 -4.9375q-0.859375 -1.21875 -2.15625 -1.21875q-1.265625 0 -2.03125 1.078125q-0.953125 1.375 -0.953125 5.078125z" fill-rule="nonzero"></path><path fill="#b6d7a8" d="m375.49493 162.31769l111.3071 0l0 107.968506l-111.3071 0z" fill-rule="evenodd"></path><path stroke="#004065" stroke-width="4.0" stroke-linejoin="round" stroke-linecap="butt" d="m375.49493 162.31769l111.3071 0l0 107.968506l-111.3071 0z" fill-rule="evenodd"></path><path fill="#000000" d="m412.39392 221.34444l0 -4.109375l-4.09375 0l0 -1.734375l4.09375 0l0 -4.078125l1.734375 0l0 4.078125l4.09375 0l0 1.734375l-4.09375 0l0 4.109375l-1.734375 0zm15.017792 2.4375l-1.84375 0l0 -11.765625q-0.671875 0.640625 -1.765625 1.28125q-1.078125 0.625 -1.9375 0.953125l0 -1.796875q1.546875 -0.71875 2.703125 -1.75q1.171875 -1.046875 1.65625 -2.015625l1.1875 0l0 15.09375zm4.9085693 -7.40625q0 -2.671875 0.546875 -4.296875q0.546875 -1.625 1.625 -2.5q1.078125 -0.890625 2.71875 -0.890625q1.21875 0 2.125 0.484375q0.921875 0.484375 1.515625 1.40625q0.59375 0.921875 0.921875 2.234375q0.34375 1.3125 0.34375 3.5625q0 2.640625 -0.546875 4.265625q-0.53125 1.625 -1.625 2.515625q-1.078125 0.875 -2.734375 0.875q-2.171875 0 -3.40625 -1.546875q-1.484375 -1.875 -1.484375 -6.109375zm1.890625 0q0 3.6875 0.859375 4.921875q0.875 1.21875 2.140625 1.21875q1.28125 0 2.140625 -1.21875q0.875 -1.234375 0.875 -4.921875q0 -3.71875 -0.875 -4.9375q-0.859375 -1.21875 -2.15625 -1.21875q-1.265625 0 -2.03125 1.078125q-0.953125 1.375 -0.953125 5.078125zm9.971069 0q0 -2.671875 0.546875 -4.296875q0.546875 -1.625 1.625 -2.5q1.078125 -0.890625 2.71875 -0.890625q1.21875 0 2.125 0.484375q0.921875 0.484375 1.515625 1.40625q0.59375 0.921875 0.921875 2.234375q0.34375 1.3125 0.34375 3.5625q0 2.640625 -0.546875 4.265625q-0.53125 1.625 -1.625 2.515625q-1.078125 0.875 -2.734375 0.875q-2.171875 0 -3.40625 -1.546875q-1.484375 -1.875 -1.484375 -6.109375zm1.890625 0q0 3.6875 0.859375 4.921875q0.875 1.21875 2.140625 1.21875q1.28125 0 2.140625 -1.21875q0.875 -1.234375 0.875 -4.921875q0 -3.71875 -0.875 -4.9375q-0.859375 -1.21875 -2.15625 -1.21875q-1.265625 0 -2.03125 1.078125q-0.953125 1.375 -0.953125 5.078125z" fill-rule="nonzero"></path><path fill="#cfd8dc" d="m41.491848 270.32254l111.30708 0l0 107.968506l-111.30708 0z" fill-rule="evenodd"></path><path stroke="#004065" stroke-width="4.0" stroke-linejoin="round" stroke-linecap="butt" d="m41.491848 270.32254l111.30708 0l0 107.968506l-111.30708 0z" fill-rule="evenodd"></path><path fill="#cfd8dc" d="m152.82622 270.32254l111.30708 0l0 107.968506l-111.30708 0z" fill-rule="evenodd"></path><path stroke="#004065" stroke-width="4.0" stroke-linejoin="round" stroke-linecap="butt" d="m152.82622 270.32254l111.30708 0l0 107.968506l-111.30708 0z" fill-rule="evenodd"></path><path fill="#cfd8dc" d="m264.16058 270.32254l111.30707 0l0 107.968506l-111.30707 0z" fill-rule="evenodd"></path><path stroke="#004065" stroke-width="4.0" stroke-linejoin="round" stroke-linecap="butt" d="m264.16058 270.32254l111.30707 0l0 107.968506l-111.30707 0z" fill-rule="evenodd"></path><path fill="#cfd8dc" d="m375.49493 270.32254l111.3071 0l0 107.968506l-111.3071 0z" fill-rule="evenodd"></path><path stroke="#004065" stroke-width="4.0" stroke-linejoin="round" stroke-linecap="butt" d="m375.49493 270.32254l111.3071 0l0 107.968506l-111.3071 0z" fill-rule="evenodd"></path><path fill="#cfd8dc" d="m41.491848 378.32742l111.30708 0l0 107.968475l-111.30708 0z" fill-rule="evenodd"></path><path stroke="#004065" stroke-width="4.0" stroke-linejoin="round" stroke-linecap="butt" d="m41.491848 378.32742l111.30708 0l0 107.968475l-111.30708 0z" fill-rule="evenodd"></path><path fill="#004065" d="m152.82622 378.32742l111.30708 0l0 107.968475l-111.30708 0z" fill-rule="evenodd"></path><path stroke="#004065" stroke-width="4.0" stroke-linejoin="round" stroke-linecap="butt" d="m152.82622 378.32742l111.30708 0l0 107.968475l-111.30708 0z" fill-rule="evenodd"></path><path fill="#000000" d="m182.15944 461.11166l22.140625 -29.84375l-19.53125 -27.421875l9.03125 0l10.390625 14.6875q3.234375 4.5625 4.609375 7.03125q1.90625 -3.125 4.53125 -6.53125l11.515625 -15.1875l8.25 0l-20.125 26.984375l21.6875 30.28125l-9.375 0l-14.421875 -20.4375q-1.203125 -1.75 -2.5 -3.828125q-1.90625 3.125 -2.734375 4.296875l-14.375 19.96875l-9.09375 0z" fill-rule="nonzero"></path><path fill="#ea9999" d="m264.16058 378.32742l111.30707 0l0 107.968475l-111.30707 0z" fill-rule="evenodd"></path><path stroke="#004065" stroke-width="4.0" stroke-linejoin="round" stroke-linecap="butt" d="m264.16058 378.32742l111.30707 0l0 107.968475l-111.30707 0z" fill-rule="evenodd"></path><path fill="#000000" d="m299.14224 435.27603l0 -1.859375l5.671875 0l0 1.859375l-5.671875 0zm14.258667 4.515625l-1.84375 0l0 -11.765625q-0.671875 0.640625 -1.765625 1.28125q-1.078125 0.625 -1.9375 0.953125l0 -1.796875q1.546875 -0.71875 2.703125 -1.75q1.171875 -1.046875 1.65625 -2.015625l1.1875 0l0 15.09375zm4.9085693 -7.40625q0 -2.671875 0.546875 -4.296875q0.546875 -1.625 1.625 -2.5q1.078125 -0.890625 2.71875 -0.890625q1.21875 0 2.125 0.484375q0.921875 0.484375 1.515625 1.40625q0.59375 0.921875 0.921875 2.234375q0.34375 1.3125 0.34375 3.5625q0 2.640625 -0.546875 4.265625q-0.53125 1.625 -1.625 2.515625q-1.078125 0.875 -2.734375 0.875q-2.171875 0 -3.40625 -1.546875q-1.484375 -1.875 -1.484375 -6.109375zm1.890625 0q0 3.6875 0.859375 4.921875q0.875 1.21875 2.140625 1.21875q1.28125 0 2.140625 -1.21875q0.875 -1.234375 0.875 -4.921875q0 -3.71875 -0.875 -4.9375q-0.859375 -1.21875 -2.15625 -1.21875q-1.265625 0 -2.03125 1.078125q-0.953125 1.375 -0.953125 5.078125zm9.971069 0q0 -2.671875 0.546875 -4.296875q0.546875 -1.625 1.625 -2.5q1.078125 -0.890625 2.71875 -0.890625q1.21875 0 2.125 0.484375q0.921875 0.484375 1.515625 1.40625q0.59375 0.921875 0.921875 2.234375q0.34375 1.3125 0.34375 3.5625q0 2.640625 -0.546875 4.265625q-0.53125 1.625 -1.625 2.515625q-1.078125 0.875 -2.734375 0.875q-2.171875 0 -3.40625 -1.546875q-1.484375 -1.875 -1.484375 -6.109375zm1.890625 0q0 3.6875 0.859375 4.921875q0.875 1.21875 2.140625 1.21875q1.28125 0 2.140625 -1.21875q0.875 -1.234375 0.875 -4.921875q0 -3.71875 -0.875 -4.9375q-0.859375 -1.21875 -2.15625 -1.21875q-1.265625 0 -2.03125 1.078125q-0.953125 1.375 -0.953125 5.078125z" fill-rule="nonzero"></path><path fill="#ea9999" d="m375.49493 378.32742l111.3071 0l0 107.968475l-111.3071 0z" fill-rule="evenodd"></path><path stroke="#004065" stroke-width="4.0" stroke-linejoin="round" stroke-linecap="butt" d="m375.49493 378.32742l111.3071 0l0 107.968475l-111.3071 0z" fill-rule="evenodd"></path><path fill="#000000" d="m410.4766 435.27603l0 -1.859375l5.671875 0l0 1.859375l-5.671875 0zm14.2586975 4.515625l-1.84375 0l0 -11.765625q-0.671875 0.640625 -1.765625 1.28125q-1.078125 0.625 -1.9375 0.953125l0 -1.796875q1.546875 -0.71875 2.703125 -1.75q1.171875 -1.046875 1.65625 -2.015625l1.1875 0l0 15.09375zm4.9085693 -7.40625q0 -2.671875 0.546875 -4.296875q0.546875 -1.625 1.625 -2.5q1.078125 -0.890625 2.71875 -0.890625q1.21875 0 2.125 0.484375q0.921875 0.484375 1.515625 1.40625q0.59375 0.921875 0.921875 2.234375q0.34375 1.3125 0.34375 3.5625q0 2.640625 -0.546875 4.265625q-0.53125 1.625 -1.625 2.515625q-1.078125 0.875 -2.734375 0.875q-2.171875 0 -3.40625 -1.546875q-1.484375 -1.875 -1.484375 -6.109375zm1.890625 0q0 3.6875 0.859375 4.921875q0.875 1.21875 2.140625 1.21875q1.28125 0 2.140625 -1.21875q0.875 -1.234375 0.875 -4.921875q0 -3.71875 -0.875 -4.9375q-0.859375 -1.21875 -2.15625 -1.21875q-1.265625 0 -2.03125 1.078125q-0.953125 1.375 -0.953125 5.078125zm9.971069 0q0 -2.671875 0.546875 -4.296875q0.546875 -1.625 1.625 -2.5q1.078125 -0.890625 2.71875 -0.890625q1.21875 0 2.125 0.484375q0.921875 0.484375 1.515625 1.40625q0.59375 0.921875 0.921875 2.234375q0.34375 1.3125 0.34375 3.5625q0 2.640625 -0.546875 4.265625q-0.53125 1.625 -1.625 2.515625q-1.078125 0.875 -2.734375 0.875q-2.171875 0 -3.40625 -1.546875q-1.484375 -1.875 -1.484375 -6.109375zm1.890625 0q0 3.6875 0.859375 4.921875q0.875 1.21875 2.140625 1.21875q1.28125 0 2.140625 -1.21875q0.875 -1.234375 0.875 -4.921875q0 -3.71875 -0.875 -4.9375q-0.859375 -1.21875 -2.15625 -1.21875q-1.265625 0 -2.03125 1.078125q-0.953125 1.375 -0.953125 5.078125z" fill-rule="nonzero"></path><path fill="#000000" fill-opacity="0.0" d="m41.491848 -53.692932l111.30708 0l0 107.968506l-111.30708 0z" fill-rule="evenodd"></path><path fill="#cfd8dc" d="m89.57508 26.698694q0 -4.0625 0.828125 -6.53125q0.84375 -2.484375 2.484375 -3.828125q1.65625 -1.343751 4.15625 -1.343751q1.84375 0 3.234375 0.75q1.390625 0.73437595 2.296875 2.140626q0.90625 1.390625 1.421875 3.40625q0.515625 2.0 0.515625 5.40625q0 4.03125 -0.828125 6.515623q-0.828125 2.46875 -2.484375 3.828125q-1.640625 1.34375 -4.15625 1.34375q-3.3125 0 -5.203125 -2.375q-2.265625 -2.859375 -2.265625 -9.312498zm2.890625 0q0 5.640623 1.3125 7.515623q1.328125 1.859375 3.265625 1.859375q1.9375 0 3.25 -1.875q1.328125 -1.875 1.328125 -7.499998q0 -5.65625 -1.328125 -7.515625q-1.3125 -1.859375 -3.28125 -1.859375q-1.9375 0 -3.09375 1.640625q-1.453125 2.09375 -1.453125 7.734375z" fill-rule="nonzero"></path><path fill="#000000" fill-opacity="0.0" d="m152.82622 -53.692932l111.30708 0l0 107.968506l-111.30708 0z" fill-rule="evenodd"></path><path fill="#cfd8dc" d="m211.50319 37.995567l-2.8125 0l0 -17.921873q-1.015625 0.96875 -2.671875 1.9375q-1.640625 0.96875 -2.953125 1.453125l0 -2.71875q2.359375 -1.109375 4.125 -2.6875q1.765625 -1.578125 2.5 -3.062501l1.8125 0l0 23.0z" fill-rule="nonzero"></path><path fill="#000000" fill-opacity="0.0" d="m264.16058 -53.692932l111.30707 0l0 107.968506l-111.30707 0z" fill-rule="evenodd"></path><path fill="#cfd8dc" d="m327.02505 35.292442l0 2.703125l-15.140625 0q-0.03125 -1.015625 0.328125 -1.953125q0.578125 -1.546875 1.84375 -3.046875q1.28125 -1.4999981 3.6875 -3.468748q3.734375 -3.0625 5.046875 -4.84375q1.3125 -1.796875 1.3125 -3.390625q0 -1.671875 -1.203125 -2.8125q-1.1875 -1.15625 -3.109375 -1.15625q-2.03125 0 -3.25 1.21875q-1.21875 1.21875 -1.234375 3.375l-2.890625 -0.296875q0.296875 -3.234375 2.234375 -4.921875q1.9375 -1.703126 5.203125 -1.703126q3.296875 0 5.21875 1.828126q1.921875 1.828125 1.921875 4.53125q0 1.375 -0.5625 2.703125q-0.5625 1.328125 -1.875 2.796875q-1.296875 1.46875 -4.328125 4.03125q-2.53125 2.124998 -3.25 2.890623q-0.71875 0.75 -1.1875 1.515625l11.234375 0z" fill-rule="nonzero"></path><path fill="#000000" fill-opacity="0.0" d="m375.49493 -53.692932l111.3071 0l0 107.968506l-111.3071 0z" fill-rule="evenodd"></path><path fill="#cfd8dc" d="m423.5938 31.948694l2.8125 -0.375q0.484375 2.390623 1.640625 3.453123q1.171875 1.046875 2.84375 1.046875q1.984375 0 3.34375 -1.375q1.375 -1.375 1.375 -3.406248q0 -1.9375 -1.265625 -3.1875q-1.265625 -1.265625 -3.21875 -1.265625q-0.796875 0 -1.984375 0.3125l0.3125 -2.46875q0.28125 0.03125 0.453125 0.03125q1.796875 0 3.234375 -0.9375q1.4375 -0.9375 1.4375 -2.890625q0 -1.546875 -1.046875 -2.5625q-1.046875 -1.015625 -2.703125 -1.015625q-1.640625 0 -2.734375 1.03125q-1.09375 1.03125 -1.40625 3.09375l-2.8125 -0.5q0.515625 -2.828125 2.34375 -4.375q1.828125 -1.562501 4.546875 -1.562501q1.875 0 3.453125 0.8125q1.578125 0.79687595 2.40625 2.187501q0.84375 1.390625 0.84375 2.953125q0 1.484375 -0.796875 2.703125q-0.796875 1.21875 -2.359375 1.9375q2.03125 0.46875 3.15625 1.953125q1.125 1.46875 1.125 3.6875q0 2.999998 -2.1875 5.093748q-2.1875 2.078125 -5.53125 2.078125q-3.015625 0 -5.015625 -1.796875q-1.984375 -1.796875 -2.265625 -4.656248z" fill-rule="nonzero"></path><path fill="#000000" fill-opacity="0.0" d="m-69.84516 54.31463l111.30708 0l0 107.9685l-111.30708 0z" fill-rule="evenodd"></path><path fill="#cfd8dc" d="m15.993173 108.72201q0 -4.0625 0.82812595 -6.53125q0.84375 -2.484375 2.484375 -3.828125q1.65625 -1.34375 4.15625 -1.34375q1.84375 0 3.234375 0.75q1.390625 0.734375 2.296875 2.140625q0.90625 1.390625 1.421875 3.40625q0.515625 2.0 0.515625 5.40625q0 4.03125 -0.828125 6.515625q-0.828125 2.46875 -2.484375 3.828125q-1.640625 1.34375 -4.15625 1.34375q-3.3125 0 -5.203125 -2.375q-2.265626 -2.859375 -2.265626 -9.3125zm2.890626 0q0 5.640625 1.3125 7.515625q1.328125 1.859375 3.265625 1.859375q1.9375 0 3.25 -1.875q1.328125 -1.875 1.328125 -7.5q0 -5.65625 -1.328125 -7.515625q-1.3125 -1.859375 -3.28125 -1.859375q-1.9375 0 -3.09375 1.640625q-1.453125 2.09375 -1.453125 7.734375z" fill-rule="nonzero"></path><path fill="#000000" fill-opacity="0.0" d="m-69.84516 162.31949l111.30708 0l0 107.968506l-111.30708 0z" fill-rule="evenodd"></path><path fill="#cfd8dc" d="m26.586924 228.02374l-2.8125 0l0 -17.921875q-1.015625 0.96875 -2.671875 1.9375q-1.640625 0.96875 -2.953125 1.453125l0 -2.71875q2.359375 -1.109375 4.125 -2.6875q1.765625 -1.578125 2.5 -3.0625l1.8125 0l0 23.0z" fill-rule="nonzero"></path><path fill="#000000" fill-opacity="0.0" d="m-69.84516 270.32434l111.30708 0l0 107.968506l-111.30708 0z" fill-rule="evenodd"></path><path fill="#cfd8dc" d="m30.774424 333.32547l0 2.703125l-15.140626 0q-0.03125 -1.015625 0.328125 -1.953125q0.57812595 -1.546875 1.843751 -3.046875q1.28125 -1.5 3.6875 -3.46875q3.734375 -3.0625 5.046875 -4.84375q1.3125 -1.796875 1.3125 -3.390625q0 -1.671875 -1.203125 -2.8125q-1.1875 -1.15625 -3.109375 -1.15625q-2.03125 0 -3.25 1.21875q-1.21875 1.21875 -1.234375 3.375l-2.890625 -0.296875q0.296875 -3.234375 2.234375 -4.921875q1.9375 -1.703125 5.203125 -1.703125q3.296875 0 5.21875 1.828125q1.921875 1.828125 1.921875 4.53125q0 1.375 -0.5625 2.703125q-0.5625 1.328125 -1.875 2.796875q-1.296875 1.46875 -4.328125 4.03125q-2.53125 2.125 -3.25 2.890625q-0.71875 0.75 -1.1875 1.515625l11.234375 0z" fill-rule="nonzero"></path><path fill="#000000" fill-opacity="0.0" d="m-69.84516 378.3292l111.30708 0l0 107.968506l-111.30708 0z" fill-rule="evenodd"></path><path fill="#cfd8dc" d="m16.008799 437.98657l2.8125 -0.375q0.484375 2.390625 1.640625 3.453125q1.171875 1.046875 2.84375 1.046875q1.984375 0 3.34375 -1.375q1.375 -1.375 1.375 -3.40625q0 -1.9375 -1.265625 -3.1875q-1.265625 -1.265625 -3.21875 -1.265625q-0.796875 0 -1.984375 0.3125l0.3125 -2.46875q0.28125 0.03125 0.453125 0.03125q1.796875 0 3.234375 -0.9375q1.4375 -0.9375 1.4375 -2.890625q0 -1.546875 -1.046875 -2.5625q-1.046875 -1.015625 -2.703125 -1.015625q-1.640625 0 -2.734375 1.03125q-1.09375 1.03125 -1.40625 3.09375l-2.8125 -0.5q0.515625 -2.828125 2.34375 -4.375q1.828125 -1.5625 4.546875 -1.5625q1.875 0 3.453125 0.8125q1.578125 0.796875 2.40625 2.1875q0.84375 1.390625 0.84375 2.953125q0 1.484375 -0.796875 2.703125q-0.796875 1.21875 -2.359375 1.9375q2.03125 0.46875 3.15625 1.953125q1.125 1.46875 1.125 3.6875q0 3.0 -2.1875 5.09375q-2.1875 2.078125 -5.53125 2.078125q-3.015625 0 -5.015625 -1.796875q-1.984375 -1.796875 -2.265625 -4.65625z" fill-rule="nonzero"></path><path fill="#000000" fill-opacity="0.0" d="m-69.84516 -53.69113l111.30708 0l0 107.968506l-111.30708 0z" fill-rule="evenodd"></path><path fill="#cfd8dc" d="m41.632545 161.83989l55.65354 -53.76377l55.65355 53.76377z" fill-rule="evenodd"></path><path stroke="#004065" stroke-width="1.0" stroke-linejoin="round" stroke-linecap="butt" d="m41.632545 161.83989l55.65354 -53.76377l55.65355 53.76377z" fill-rule="evenodd"></path><path fill="#000000" d="m93.88122 153.70958l0 1.609375l-8.984375 0q-0.015625 -0.609375 0.1875 -1.15625q0.34375 -0.921875 1.09375 -1.8125q0.765625 -0.890625 2.1875 -2.0625q2.21875 -1.8125 3.0 -2.875q0.78125 -1.0625 0.78125 -2.015625q0 -0.984375 -0.71875 -1.671875q-0.703125 -0.6875 -1.84375 -0.6875q-1.203125 0 -1.9375 0.734375q-0.71875 0.71875 -0.71875 2.0l-1.71875 -0.171875q0.171875 -1.921875 1.328125 -2.921875q1.15625 -1.015625 3.09375 -1.015625q1.953125 0 3.09375 1.09375q1.140625 1.078125 1.140625 2.6875q0 0.8125 -0.34375 1.609375q-0.328125 0.78125 -1.109375 1.65625q-0.765625 0.859375 -2.5625 2.390625q-1.5 1.265625 -1.9375 1.71875q-0.421875 0.4375 -0.703125 0.890625l6.671875 0zm2.5319672 1.609375l0 -1.90625l1.90625 0l0 1.90625l-1.90625 0zm9.605179 0l0 -3.25l-5.90625 0l0 -1.53125l6.21875 -8.8125l1.359375 0l0 8.8125l1.84375 0l0 1.53125l-1.84375 0l0 3.25l-1.671875 0zm0 -4.78125l0 -6.140625l-4.25 6.140625l4.25 0z" fill-rule="nonzero"></path><path fill="#cfd8dc" d="m152.80121 54.85614l-55.65354 53.779526l-55.65354 -53.748028z" fill-rule="evenodd"></path><path stroke="#004065" stroke-width="1.0" stroke-linejoin="round" stroke-linecap="butt" d="m152.80121 54.85614l-55.65354 53.779526l-55.65354 -53.748028z" fill-rule="evenodd"></path><path fill="#000000" d="m100.552536 63.001247l0 -1.609375l8.984375 -0.002544403q0.015625 0.6093712 -0.1875 1.1563034q-0.34375 0.9219742 -1.09375 1.8128128q-0.765625 0.8908386 -2.1875 2.063118q-2.21875 1.8131256 -3.0 2.8758469q-0.78125 1.0627213 -0.78125 2.0158463q0 0.984375 0.71875 1.671669q0.703125 0.68730164 1.84375 0.6869812q1.203125 -3.4332275E-4 1.9375 -0.7349243q0.71875 -0.718956 0.71875 -2.000206l1.71875 0.17139435q-0.171875 1.9219208 -1.328125 2.9222488q-1.15625 1.0159531 -3.09375 1.0165024q-1.953125 5.493164E-4 -3.09375 -1.0928802q-1.140625 -1.0777969 -1.140625 -2.687172q0 -0.8125 0.34375 -1.6094742q0.328125 -0.78134155 1.109375 -1.6565628q0.765625 -0.85959625 2.5625 -2.3913498q1.5 -1.2660522 1.9375 -1.7192993q0.421875 -0.43761826 0.703125 -0.89082336l-6.671875 0.0018882751zm-2.5319672 -1.6086617l0 1.90625l-1.90625 5.41687E-4l0 -1.90625l1.90625 -5.41687E-4zm-10.542679 0.0029830933l1.671875 -4.7302246E-4l0 10.640625q0.59375 -0.57829285 1.578125 -1.1566925q0.984375 -0.5627823 1.765625 -0.85987854l0 1.625q-1.40625 0.6566467 -2.453125 1.5944443q-1.046875 0.93779755 -1.484375 1.8129196l-1.078125 3.0517578E-4l0 -13.65625z" fill-rule="nonzero"></path><path fill="#cfd8dc" d="m42.944424 52.676758l53.77953 55.65354l-53.74803 55.65354z" fill-rule="evenodd"></path><path stroke="#004065" stroke-width="1.0" stroke-linejoin="round" stroke-linecap="butt" d="m42.944424 52.676758l53.77953 55.65354l-53.74803 55.65354z" fill-rule="evenodd"></path><path fill="#000000" d="m49.47945 102.441055l-4.7302246E-4 -1.671875l10.640629 0q-0.57829666 -0.59375 -1.1567001 -1.578125q-0.5627785 -0.984375 -0.8598747 -1.765625l1.625 0q0.65665054 1.40625 1.5944443 2.453125q0.93779755 1.046875 1.8129234 1.484375l3.0517578E-4 1.078125l-13.656254 0zm0.0014228821 5.016342l1.90625 0l5.378723E-4 1.90625l-1.90625 0l-5.378723E-4 -1.90625zm11.813736 4.370804l1.609375 0l0.0024871826 8.796875l-1.296875 0q-1.3753662 -1.296875 -3.6726036 -2.578125q-2.2972336 -1.265625 -4.719307 -1.96875q-1.7032661 -0.5 -3.734558 -0.640625l-4.8446655E-4 -1.71875q1.6093826 0.03125 3.8751755 0.625q2.2814255 0.609375 4.391117 1.734375q2.1096992 1.140625 3.5475578 2.40625l-0.0018844604 -6.65625z" fill-rule="nonzero"></path><path fill="#cfd8dc" d="m150.95407 164.16724l-53.779526 -55.65354l53.74803 -55.653545z" fill-rule="evenodd"></path><path stroke="#004065" stroke-width="1.0" stroke-linejoin="round" stroke-linecap="butt" d="m150.95407 164.16724l-53.779526 -55.65354l53.74803 -55.653545z" fill-rule="evenodd"></path><path fill="#000000" d="m140.82707 120.68419l-0.21922302 -1.671875q1.4217987 -0.28125 2.0466003 -0.96875q0.62480164 -0.703125 0.624527 -1.6875q-3.3569336E-4 -1.1875 -0.8130646 -2.0q-0.8283539 -0.8125 -2.031479 -0.8125q-1.140625 0 -1.8904114 0.765625q-0.7497864 0.75 -0.74946594 1.90625q1.373291E-4 0.46875 0.1878357 1.171875l-1.468811 -0.1875q0.015579224 -0.15625 0.015548706 -0.265625q-2.89917E-4 -1.0625 -0.54740906 -1.90625q-0.56274414 -0.859375 -1.7189941 -0.859375q-0.921875 0 -1.5154419 0.625q-0.60920715 0.609375 -0.6089325 1.59375q2.746582E-4 0.96875 0.60983276 1.625q0.6095581 0.640625 1.8439941 0.828125l-0.29640198 1.671875q-1.6875916 -0.296875 -2.6097717 -1.375q-0.9221802 -1.09375 -0.92263794 -2.71875q-3.2043457E-4 -1.109375 0.48379517 -2.046875q0.46847534 -0.9375 1.2964783 -1.421875q0.8279724 -0.5 1.7498474 -0.5q0.890625 0 1.6095123 0.46875q0.7188873 0.46875 1.1566467 1.40625q0.26527405 -1.21875 1.155716 -1.875q0.8748169 -0.671875 2.187317 -0.671875q1.78125 0 3.0159912 1.296875q1.2347412 1.296875 1.2353058 3.28125q5.0354004E-4 1.796875 -1.0616608 2.984375q-1.0621643 1.171875 -2.7652435 1.34375zm3.5905457 -11.297592l-1.90625 0l-5.340576E-4 -1.90625l1.90625 0l5.340576E-4 1.90625zm-7.3769226 -6.8239365q-0.37471008 1.046875 -1.0776825 1.546875q-0.7186127 0.5000076 -1.7029877 0.5000076q-1.484375 0 -2.4846802 -1.0625076q-1.0159302 -1.078125 -1.0164337 -2.84375q-5.0354004E-4 -1.78125 1.0304413 -2.8593674q1.0309448 -1.09375 2.5153198 -1.09375q0.953125 0 1.6563873 0.5q0.7032623 0.484375 1.0785522 1.5q0.40589905 -1.25 1.311966 -1.90625q0.9060669 -0.65625 2.171692 -0.65625q1.75 0 2.937851 1.234375q1.1878357 1.234375 1.1884155 3.2499924q5.645752E-4 2.015625 -1.1865845 3.25q-1.202774 1.2343826 -2.984024 1.2343826q-1.328125 0 -2.218933 -0.671875q-0.89082336 -0.6718826 -1.2192993 -1.9218826zm-2.8280334 0.328125q0.96875 0 1.5779572 -0.609375q0.6091919 -0.625 0.60891724 -1.625q-2.746582E-4 -0.953125 -0.6098175 -1.5625q-0.6095581 -0.6249924 -1.4845581 -0.6249924q-0.921875 0 -1.5466919 0.6406174q-0.62483215 0.625 -0.6245575 1.578125q2.746582E-4 0.953125 0.6098175 1.578125q0.6095581 0.625 1.4689331 0.625zm6.2814026 0.546875q0.71875 0 1.3905334 -0.328125q0.65615845 -0.34375 1.0309601 -1.015625q0.3591919 -0.671875 0.35897827 -1.4375q-3.5095215E-4 -1.203125 -0.7661896 -1.9843674q-0.7814789 -0.78125 -1.9689789 -0.78125q-1.203125 0 -1.9841461 0.8125q-0.7966461 0.7968674 -0.7963104 1.9999924q3.3569336E-4 1.1875 0.7818146 1.96875q0.7814636 0.765625 1.9533386 0.765625z" fill-rule="nonzero"></path><path fill="#cfd8dc" d="m152.68765 162.16275l55.653534 -53.76378l55.653534 53.76378z" fill-rule="evenodd"></path><path stroke="#004065" stroke-width="1.0" stroke-linejoin="round" stroke-linecap="butt" d="m152.68765 162.16275l55.653534 -53.76378l55.653534 53.76378z" fill-rule="evenodd"></path><path fill="#000000" d="m196.15508 152.07932l1.765625 -0.15625q0.1875 1.28125 0.890625 1.9375q0.71875 0.640625 1.71875 0.640625q1.203125 0 2.03125 -0.90625q0.84375 -0.90625 0.84375 -2.421875q0 -1.421875 -0.8125 -2.25q-0.796875 -0.828125 -2.09375 -0.828125q-0.796875 0 -1.453125 0.375q-0.640625 0.359375 -1.015625 0.953125l-1.578125 -0.203125l1.328125 -7.0l6.765625 0l0 1.609375l-5.4375 0l-0.734375 3.640625q1.234375 -0.84375 2.578125 -0.84375q1.78125 0 3.0 1.234375q1.234375 1.234375 1.234375 3.171875q0 1.84375 -1.078125 3.1875q-1.3125 1.65625 -3.578125 1.65625q-1.859375 0 -3.03125 -1.03125q-1.171875 -1.046875 -1.34375 -2.765625zm11.281967 3.5625l0 -1.90625l1.90625 0l0 1.90625q0 1.046875 -0.375 1.6875q-0.375 0.65625 -1.171875 1.0l-0.46875 -0.71875q0.53125 -0.21875 0.78125 -0.671875q0.25 -0.453125 0.28125 -1.296875l-0.953125 0zm9.636429 0l0 -3.25l-5.90625 0l0 -1.53125l6.21875 -8.8125l1.359375 0l0 8.8125l1.84375 0l0 1.53125l-1.84375 0l0 3.25l-1.671875 0zm0 -4.78125l0 -6.140625l-4.25 6.140625l4.25 0z" fill-rule="nonzero"></path><path fill="#cfd8dc" d="m263.85632 55.179l-55.65355 53.779526l-55.65355 -53.74803z" fill-rule="evenodd"></path><path stroke="#004065" stroke-width="1.0" stroke-linejoin="round" stroke-linecap="butt" d="m263.85632 55.179l-55.65355 53.779526l-55.65355 -53.74803z" fill-rule="evenodd"></path><path fill="#000000" d="m220.37326 65.306l-1.671875 0.21922302q-0.28125 -1.4217911 -0.96875 -2.0466003q-0.703125 -0.62480164 -1.6875 -0.62452316q-1.1875 3.3569336E-4 -2.0 0.8130684q-0.8125 0.8283539 -0.8125 2.031479q0 1.140625 0.765625 1.8904114q0.75 0.7497864 1.90625 0.7494583q0.46875 -1.373291E-4 1.171875 -0.1878357l-0.1875 1.4688034q-0.15625 -0.015579224 -0.265625 -0.015548706q-1.0625 3.0517578E-4 -1.90625 0.5474167q-0.859375 0.56274414 -0.859375 1.7189941q0 0.921875 0.625 1.5154495q0.609375 0.6091995 1.59375 0.60892487q0.96875 -2.746582E-4 1.625 -0.6098404q0.640625 -0.6095581 0.828125 -1.8439789l1.671875 0.29640198q-0.296875 1.6875839 -1.375 2.609764q-1.09375 0.9221802 -2.71875 0.92263794q-1.109375 3.1280518E-4 -2.046875 -0.48379517q-0.9375 -0.46848297 -1.421875 -1.2964706q-0.5 -0.82798004 -0.5 -1.749855q0 -0.890625 0.46875 -1.6095123q0.46875 -0.7188797 1.40625 -1.1566467q-1.21875 -0.26528168 -1.875 -1.155716q-0.671875 -0.8748169 -0.671875 -2.187317q0 -1.7812462 1.296875 -3.0159874q1.296875 -1.234745 3.28125 -1.2353058q1.796875 -5.0735474E-4 2.984375 1.061657q1.171875 1.0621681 1.34375 2.7652435zm-11.297592 -3.5905533l0 1.90625l-1.90625 5.41687E-4l0 -1.90625l1.90625 -5.41687E-4zm-4.370804 11.813736l0 1.609375l-8.796875 0.002494812l0 -1.296875q1.296875 -1.3753738 2.578125 -3.6726074q1.265625 -2.2972336 1.96875 -4.719307q0.5 -1.7032661 0.640625 -3.734558l1.71875 -4.8446655E-4q-0.03125 1.6093826 -0.625 3.8751793q-0.609375 2.2814178 -1.734375 4.3911133q-1.140625 2.1096954 -2.40625 3.547554l6.65625 -0.0018844604z" fill-rule="nonzero"></path><path fill="#cfd8dc" d="m153.99953 52.999615l53.779526 55.653545l-53.74803 55.65354z" fill-rule="evenodd"></path><path stroke="#004065" stroke-width="1.0" stroke-linejoin="round" stroke-linecap="butt" d="m153.99953 52.999615l53.779526 55.653545l-53.74803 55.65354z" fill-rule="evenodd"></path><path fill="#000000" d="m164.12653 96.482666l0.21922302 1.671875q-1.4217987 0.28125 -2.0466003 0.96875q-0.62480164 0.703125 -0.624527 1.6875q3.3569336E-4 1.1875 0.8130646 2.0q0.8283539 0.8125 2.031479 0.8125q1.140625 0 1.8904114 -0.765625q0.7497864 -0.75 0.74946594 -1.90625q-1.373291E-4 -0.46875 -0.1878357 -1.171875l1.468811 0.1875q-0.015579224 0.15625 -0.015548706 0.265625q2.89917E-4 1.0625 0.54740906 1.90625q0.56274414 0.859375 1.7189941 0.859375q0.921875 0 1.5154419 -0.625q0.60920715 -0.609375 0.6089325 -1.59375q-2.746582E-4 -0.96875 -0.60983276 -1.625q-0.6095581 -0.640625 -1.8439941 -0.828125l0.29640198 -1.671875q1.6875916 0.296875 2.6097717 1.375q0.9221802 1.09375 0.92263794 2.71875q3.2043457E-4 1.109375 -0.48379517 2.046875q-0.4684906 0.9375 -1.2964783 1.421875q-0.8279724 0.5 -1.7498474 0.5q-0.890625 0 -1.6095123 -0.46875q-0.7188873 -0.46875 -1.1566467 -1.40625q-0.26527405 1.21875 -1.155716 1.875q-0.8748169 0.671875 -2.187317 0.671875q-1.78125 0 -3.0159912 -1.296875q-1.2347412 -1.296875 -1.2353058 -3.28125q-5.0354004E-4 -1.796875 1.0616608 -2.984375q1.0621643 -1.171875 2.7652435 -1.34375zm-3.5905457 11.297592l1.90625 0l5.340576E-4 1.90625l-1.90625 0l-5.340576E-4 -1.90625zm0.0027160645 9.605179l3.25 0l-0.0016784668 -5.90625l1.53125 0l8.814255 6.21875l3.9672852E-4 1.359375l-8.8125 0l5.187988E-4 1.84375l-1.53125 0l-5.187988E-4 -1.84375l-3.25 0l-4.7302246E-4 -1.671875zm4.78125 0l6.140625 0l-6.1418304 -4.25l0.0012054443 4.25z" fill-rule="nonzero"></path><path fill="#cfd8dc" d="m262.0092 164.4901l-53.77954 -55.65354l53.748047 -55.653545z" fill-rule="evenodd"></path><path stroke="#004065" stroke-width="1.0" stroke-linejoin="round" stroke-linecap="butt" d="m262.0092 164.4901l-53.77954 -55.65354l53.748047 -55.653545z" fill-rule="evenodd"></path><path fill="#000000" d="m240.88217 121.00705l-0.21922302 -1.671875q1.4217987 -0.28125 2.0466003 -0.96875q0.62480164 -0.703125 0.624527 -1.6875q-3.3569336E-4 -1.1875 -0.8130646 -2.0q-0.8283539 -0.8125 -2.031479 -0.8125q-1.140625 0 -1.8904114 0.765625q-0.7497864 0.75 -0.74946594 1.90625q1.373291E-4 0.46875 0.1878357 1.171875l-1.468811 -0.1875q0.015594482 -0.15625 0.015548706 -0.265625q-2.89917E-4 -1.0625 -0.54740906 -1.90625q-0.56274414 -0.859375 -1.7189941 -0.859375q-0.921875 0 -1.5154419 0.625q-0.60920715 0.609375 -0.6089325 1.59375q2.746582E-4 0.96875 0.60983276 1.625q0.6095581 0.640625 1.8439941 0.828125l-0.29640198 1.671875q-1.6875916 -0.296875 -2.6097717 -1.375q-0.9221802 -1.09375 -0.92263794 -2.71875q-3.2043457E-4 -1.109375 0.48379517 -2.046875q0.4684906 -0.9375 1.2964783 -1.421875q0.8279724 -0.5 1.7498474 -0.5q0.890625 0 1.6095123 0.46875q0.7188873 0.46875 1.1566467 1.40625q0.2652893 -1.21875 1.155716 -1.875q0.8748169 -0.671875 2.187317 -0.671875q1.78125 0 3.0159912 1.296875q1.2347412 1.296875 1.2353058 3.28125q5.0354004E-4 1.796875 -1.0616608 2.984375q-1.0621643 1.171875 -2.7652435 1.34375zm3.590561 -11.297592l-1.90625 0l-5.493164E-4 -1.90625l1.90625 0l5.493164E-4 1.90625zm-10.269287 -12.917686l0.12547302 1.65625q-0.98431396 0.21875 -1.4216919 0.640625q-0.7185669 0.671875 -0.71829224 1.65625q2.2888184E-4 0.8125 0.43789673 1.40625q0.5783539 0.796875 1.6878662 1.25q1.0938721 0.453125 3.140747 0.46875q-0.92204285 -0.609375 -1.359787 -1.46875q-0.45336914 -0.875 -0.4536438 -1.828125q-4.7302246E-4 -1.671875 1.2335663 -2.84375q1.2340546 -1.171875 3.1715546 -1.171875q1.28125 0 2.3907776 0.546875q1.0939026 0.546875 1.6879272 1.515625q0.57839966 0.96875 0.57873535 2.1875q5.950928E-4 2.09375 -1.5302734 3.40625q-1.5465088 1.3125076 -5.062134 1.3125076q-3.953125 0 -5.734787 -1.4531326q-1.562851 -1.265625 -1.5634613 -3.421875q-4.5776367E-4 -1.609375 0.9055023 -2.625q0.8903351 -1.03125 2.484024 -1.234375zm5.8612976 6.8125q0.859375 0 1.6561584 -0.359375q0.7811432 -0.375 1.2028351 -1.03125q0.40605164 -0.65625 0.40585327 -1.375q-3.0517578E-4 -1.0625 -0.8442688 -1.8125q-0.8595886 -0.765625 -2.3283386 -0.765625q-1.40625 0 -2.2185364 0.75q-0.8122864 0.75 -0.81196594 1.890625q3.2043457E-4 1.125 0.8130493 1.921875q0.8127136 0.78125 2.1252136 0.78125z" fill-rule="nonzero"></path><path fill="#cfd8dc" d="m263.79132 161.72447l55.653564 -53.763786l55.653534 53.763786z" fill-rule="evenodd"></path><path stroke="#004065" stroke-width="1.0" stroke-linejoin="round" stroke-linecap="butt" d="m263.79132 161.72447l55.653564 -53.763786l55.653534 53.763786z" fill-rule="evenodd"></path><path fill="#000000" d="m307.27438 151.60977l1.671875 -0.21875q0.28125 1.421875 0.96875 2.046875q0.703125 0.625 1.6875 0.625q1.1875 0 2.0 -0.8125q0.8125 -0.828125 0.8125 -2.03125q0 -1.140625 -0.765625 -1.890625q-0.75 -0.75 -1.90625 -0.75q-0.46875 0 -1.171875 0.1875l0.1875 -1.46875q0.15625 0.015625 0.265625 0.015625q1.0625 0 1.90625 -0.546875q0.859375 -0.5625 0.859375 -1.71875q0 -0.921875 -0.625 -1.515625q-0.609375 -0.609375 -1.59375 -0.609375q-0.96875 0 -1.625 0.609375q-0.640625 0.609375 -0.828125 1.84375l-1.671875 -0.296875q0.296875 -1.6875 1.375 -2.609375q1.09375 -0.921875 2.71875 -0.921875q1.109375 0 2.046875 0.484375q0.9375 0.46875 1.421875 1.296875q0.5 0.828125 0.5 1.75q0 0.890625 -0.46875 1.609375q-0.46875 0.71875 -1.40625 1.15625q1.21875 0.265625 1.875 1.15625q0.671875 0.875 0.671875 2.1875q0 1.78125 -1.296875 3.015625q-1.296875 1.234375 -3.28125 1.234375q-1.796875 0 -2.984375 -1.0625q-1.171875 -1.0625 -1.34375 -2.765625zm11.297577 3.59375l0 -1.90625l1.90625 0l0 1.90625l-1.90625 0zm6.823944 -7.375q-1.046875 -0.375 -1.546875 -1.078125q-0.5 -0.71875 -0.5 -1.703125q0 -1.484375 1.0625 -2.484375q1.078125 -1.015625 2.84375 -1.015625q1.78125 0 2.859375 1.03125q1.09375 1.03125 1.09375 2.515625q0 0.953125 -0.5 1.65625q-0.484375 0.703125 -1.5 1.078125q1.25 0.40625 1.90625 1.3125q0.65625 0.90625 0.65625 2.171875q0 1.75 -1.234375 2.9375q-1.234375 1.1875 -3.25 1.1875q-2.015625 0 -3.25 -1.1875q-1.234375 -1.203125 -1.234375 -2.984375q0 -1.328125 0.671875 -2.21875q0.671875 -0.890625 1.921875 -1.21875zm-0.328125 -2.828125q0 0.96875 0.609375 1.578125q0.625 0.609375 1.625 0.609375q0.953125 0 1.5625 -0.609375q0.625 -0.609375 0.625 -1.484375q0 -0.921875 -0.640625 -1.546875q-0.625 -0.625 -1.578125 -0.625q-0.953125 0 -1.578125 0.609375q-0.625 0.609375 -0.625 1.46875zm-0.546875 6.28125q0 0.71875 0.328125 1.390625q0.34375 0.65625 1.015625 1.03125q0.671875 0.359375 1.4375 0.359375q1.203125 0 1.984375 -0.765625q0.78125 -0.78125 0.78125 -1.96875q0 -1.203125 -0.8125 -1.984375q-0.796875 -0.796875 -2.0 -0.796875q-1.1875 0 -1.96875 0.78125q-0.765625 0.78125 -0.765625 1.953125z" fill-rule="nonzero"></path><path fill="#cfd8dc" d="m374.96 54.740715l-55.653534 53.779526l-55.653534 -53.74803z" fill-rule="evenodd"></path><path stroke="#004065" stroke-width="1.0" stroke-linejoin="round" stroke-linecap="butt" d="m374.96 54.740715l-55.653534 53.779526l-55.653534 -53.74803z" fill-rule="evenodd"></path><path fill="#000000" d="m331.47696 64.867714l-1.671875 0.21922302q-0.28125 -1.4217949 -0.96875 -2.0466003q-0.703125 -0.62480164 -1.6875 -0.62452316q-1.1875 3.3569336E-4 -2.0 0.8130646q-0.8125 0.8283577 -0.8125 2.0314827q0 1.140625 0.765625 1.8904037q0.75 0.749794 1.90625 0.74946594q0.46875 -1.373291E-4 1.171875 -0.1878357l-0.1875 1.4688034q-0.15625 -0.015579224 -0.265625 -0.015548706q-1.0625 3.0517578E-4 -1.90625 0.5474167q-0.859375 0.56274414 -0.859375 1.7189941q0 0.921875 0.625 1.5154495q0.609375 0.6091995 1.59375 0.60891724q0.96875 -2.746582E-4 1.625 -0.60983276q0.640625 -0.6095581 0.828125 -1.8439865l1.671875 0.29640198q-0.296875 1.6875839 -1.375 2.609764q-1.09375 0.9221878 -2.71875 0.92264557q-1.109375 3.1280518E-4 -2.046875 -0.48379517q-0.9375 -0.46848297 -1.421875 -1.2964706q-0.5 -0.8279877 -0.5 -1.7498627q0 -0.890625 0.46875 -1.6095047q0.46875 -0.7188797 1.40625 -1.1566467q-1.21875 -0.26528168 -1.875 -1.1557236q-0.671875 -0.87480927 -0.671875 -2.1873093q0 -1.7812462 1.296875 -3.0159912q1.296875 -1.2347412 3.28125 -1.235302q1.796875 -5.0735474E-4 2.984375 1.061657q1.171875 1.0621681 1.34375 2.7652435zm-11.297607 -3.5905533l0 1.90625l-1.90625 5.378723E-4l0 -1.90625l1.90625 -5.378723E-4zm-6.8239136 7.37693q1.046875 0.37470245 1.546875 1.0776901q0.5 0.71860504 0.5 1.70298q0 1.484375 -1.0625 2.4846802q-1.078125 1.0159302 -2.84375 1.0164261q-1.78125 5.0354004E-4 -2.859375 -1.0304413q-1.09375 -1.0309372 -1.09375 -2.5153122q0 -0.953125 0.5 -1.656395q0.484375 -0.7032623 1.5 -1.0785446q-1.25 -0.40589905 -1.90625 -1.311966q-0.65625 -0.90605927 -0.65625 -2.1716843q0 -1.7500038 1.234375 -2.9378548q1.234375 -1.1878471 3.25 -1.1884193q2.015625 -5.683899E-4 3.25 1.1865807q1.234375 1.2027779 1.234375 2.9840279q0 1.328125 -0.671875 2.2189407q-0.671875 0.89081573 -1.921875 1.2192917zm0.328125 2.8280334q0 -0.96875 -0.609375 -1.5779495q-0.625 -0.6091995 -1.625 -0.60891724q-0.953125 2.670288E-4 -1.5625 0.6098175q-0.625 0.6095505 -0.625 1.4845505q0 0.921875 0.640625 1.5466919q0.625 0.6248245 1.578125 0.6245575q0.953125 -2.746582E-4 1.578125 -0.60982513q0.625 -0.6095505 0.625 -1.4689255zm0.546875 -6.2814026q0 -0.71875 -0.328125 -1.3905334q-0.34375 -0.65615463 -1.015625 -1.0309639q-0.671875 -0.35918427 -1.4375 -0.35896683q-1.203125 3.3950806E-4 -1.984375 0.76618576q-0.78125 0.78147125 -0.78125 1.9689674q0 1.203125 0.8125 1.9841461q0.796875 0.79665375 2.0 0.7963104q1.1875 -3.3569336E-4 1.96875 -0.78180695q0.765625 -0.7814636 0.765625 -1.9533386z" fill-rule="nonzero"></path><path fill="#cfd8dc" d="m265.1032 52.56133l53.77951 55.653545l-53.748016 55.653534z" fill-rule="evenodd"></path><path stroke="#004065" stroke-width="1.0" stroke-linejoin="round" stroke-linecap="butt" d="m265.1032 52.56133l53.77951 55.653545l-53.748016 55.653534z" fill-rule="evenodd"></path><path fill="#000000" d="m271.63797 101.38813l3.25 0l-0.0016784668 -5.90625l1.53125 0l8.81427 6.21875l3.9672852E-4 1.359375l-8.8125 0l5.187988E-4 1.84375l-1.53125 0l-5.187988E-4 -1.84375l-3.25 0l-4.8828125E-4 -1.671875zm4.78125 0l6.140625 0l-6.141815 -4.25l0.0011901855 4.25zm-4.7795715 5.953842l1.90625 0l5.493164E-4 1.90625l-1.90625 0l-5.493164E-4 -1.90625zm7.376953 6.823929q0.37469482 -1.046875 1.0776672 -1.546875q0.7186279 -0.5 1.7030029 -0.5q1.484375 0 2.4846497 1.0625q1.0159302 1.078125 1.016449 2.84375q4.8828125E-4 1.78125 -1.0304565 2.859375q-1.0309448 1.09375 -2.5153198 1.09375q-0.953125 0 -1.6563721 -0.5q-0.7032776 -0.484375 -1.0785522 -1.5q-0.4059143 1.25 -1.3119507 1.90625q-0.9060669 0.65625 -2.171692 0.65625q-1.75 0 -2.9378662 -1.234375q-1.1878357 -1.234375 -1.1884155 -3.25q-5.79834E-4 -2.015625 1.1865845 -3.25q1.2027588 -1.234375 2.9840088 -1.234375q1.328125 0 2.2189636 0.671875q0.8908081 0.671875 1.2192993 1.921875zm2.828003 -0.328125q-0.96875 0 -1.5779419 0.609375q-0.6091919 0.625 -0.60891724 1.625q2.746582E-4 0.953125 0.60983276 1.5625q0.6095276 0.625 1.4845276 0.625q0.921875 0 1.5467224 -0.640625q0.6248169 -0.625 0.62454224 -1.578125q-2.746582E-4 -0.953125 -0.60983276 -1.578125q-0.6095581 -0.625 -1.4689331 -0.625zm-6.2814026 -0.546875q-0.71875 0 -1.3905334 0.328125q-0.6561279 0.34375 -1.0309448 1.015625q-0.3591919 0.671875 -0.35897827 1.4375q3.3569336E-4 1.203125 0.76620483 1.984375q0.7814636 0.78125 1.9689636 0.78125q1.203125 0 1.9841309 -0.8125q0.7966614 -0.796875 0.7963257 -2.0q-3.3569336E-4 -1.1875 -0.78182983 -1.96875q-0.7814636 -0.765625 -1.9533386 -0.765625z" fill-rule="nonzero"></path><path fill="#cfd8dc" d="m373.11285 164.0518l-53.77951 -55.65354l53.748016 -55.65354z" fill-rule="evenodd"></path><path stroke="#004065" stroke-width="1.0" stroke-linejoin="round" stroke-linecap="butt" d="m373.11285 164.0518l-53.77951 -55.65354l53.748016 -55.65354z" fill-rule="evenodd"></path><path fill="#000000" d="m352.01712 120.58438l-0.1567688 -1.765625q1.2812195 -0.1875 1.9372559 -0.890625q0.6404114 -0.71875 0.6401367 -1.71875q-3.3569336E-4 -1.203125 -0.90682983 -2.03125q-0.90649414 -0.84375 -2.4221191 -0.84375q-1.421875 0 -2.2497559 0.8125q-0.8279114 0.796875 -0.82754517 2.09375q2.4414062E-4 0.796875 0.37542725 1.453125q0.3595581 0.640625 0.95339966 1.015625l-0.20266724 1.578125l-7.000366 -1.328125l-0.0019226074 -6.765625l1.609375 0l0.0015258789 5.4375l3.6408386 0.734375q-0.8440857 -1.234375 -0.8444824 -2.578125q-4.8828125E-4 -1.78125 1.2335205 -3.0q1.2340393 -1.234375 3.1715393 -1.234375q1.84375 0 3.1878052 1.078125q1.6566162 1.3125 1.6572571 3.578125q5.187988E-4 1.859375 -1.0303955 3.03125q-1.0465393 1.171875 -2.7652283 1.34375zm3.5592957 -11.313217l-1.90625 0l-5.493164E-4 -1.90625l1.90625 0l5.493164E-4 1.90625zm-3.5637207 -4.245804l-0.15673828 -1.765625q1.281189 -0.1875 1.9372559 -0.890625q0.6404114 -0.71875 0.6401367 -1.71875q-3.3569336E-4 -1.203125 -0.90682983 -2.03125q-0.90649414 -0.84375 -2.4221191 -0.84375q-1.421875 0 -2.2497559 0.8125q-0.8279114 0.796875 -0.82754517 2.09375q2.1362305E-4 0.796875 0.37542725 1.453125q0.3595581 0.640625 0.95339966 1.015625l-0.20266724 1.5781326l-7.0003967 -1.3281326l-0.0018920898 -6.765625l1.609375 0l0.0015258789 5.4375l3.6408386 0.734375q-0.8441162 -1.234375 -0.8444824 -2.578125q-5.187988E-4 -1.78125 1.2335205 -3.0q1.2340393 -1.234375 3.1715393 -1.234375q1.84375 0 3.1878052 1.078125q1.6566162 1.3125 1.6572571 3.578125q5.187988E-4 1.859375 -1.0303955 3.03125q-1.0465393 1.171875 -2.7652588 1.34375z" fill-rule="nonzero"></path><path fill="#cfd8dc" d="m375.21915 162.16281l55.653534 -53.76378l55.653564 53.76378z" fill-rule="evenodd"></path><path stroke="#004065" stroke-width="1.0" stroke-linejoin="round" stroke-linecap="butt" d="m375.21915 162.16281l55.653534 -53.76378l55.653564 53.76378z" fill-rule="evenodd"></path><path fill="#000000" d="m418.9522 152.50124l1.59375 -0.15625q0.203125 1.140625 0.78125 1.65625q0.578125 0.5 1.484375 0.5q0.765625 0 1.34375 -0.34375q0.578125 -0.359375 0.953125 -0.953125q0.375 -0.59375 0.625 -1.59375q0.25 -1.0 0.25 -2.03125q0 -0.109375 -0.015625 -0.34375q-0.5 0.796875 -1.375 1.296875q-0.859375 0.5 -1.875 0.5q-1.6875 0 -2.859375 -1.21875q-1.171875 -1.234375 -1.171875 -3.234375q0 -2.078125 1.21875 -3.328125q1.234375 -1.265625 3.0625 -1.265625q1.328125 0 2.421875 0.71875q1.109375 0.703125 1.671875 2.03125q0.578125 1.328125 0.578125 3.828125q0 2.609375 -0.578125 4.15625q-0.5625 1.546875 -1.6875 2.359375q-1.109375 0.796875 -2.609375 0.796875q-1.59375 0 -2.609375 -0.890625q-1.0 -0.890625 -1.203125 -2.484375zm6.828125 -6.0q0 -1.4375 -0.765625 -2.28125q-0.765625 -0.859375 -1.84375 -0.859375q-1.109375 0 -1.9375 0.921875q-0.828125 0.90625 -0.828125 2.34375q0 1.3125 0.78125 2.125q0.796875 0.796875 1.9375 0.796875q1.171875 0 1.90625 -0.796875q0.75 -0.8125 0.75 -2.25zm4.219452 9.140625l0 -1.90625l1.90625 0l0 1.90625l-1.90625 0zm9.605194 0l0 -3.25l-5.90625 0l0 -1.53125l6.21875 -8.8125l1.359375 0l0 8.8125l1.84375 0l0 1.53125l-1.84375 0l0 3.25l-1.671875 0zm0 -4.78125l0 -6.140625l-4.25 6.140625l4.25 0z" fill-rule="nonzero"></path><path fill="#cfd8dc" d="m486.38782 55.179058l-55.653534 53.77953l-55.653564 -53.74803z" fill-rule="evenodd"></path><path stroke="#004065" stroke-width="1.0" stroke-linejoin="round" stroke-linecap="butt" d="m486.38782 55.179058l-55.653534 53.77953l-55.653564 -53.74803z" fill-rule="evenodd"></path><path fill="#000000" d="m442.90475 65.30606l-1.671875 0.21922302q-0.28125 -1.4217987 -0.96875 -2.0466042q-0.703125 -0.6247978 -1.6875 -0.62451935q-1.1875 3.3569336E-4 -2.0 0.8130646q-0.8125 0.8283577 -0.8125 2.0314827q0 1.140625 0.765625 1.8904037q0.75 0.7497864 1.90625 0.74946594q0.46875 -1.373291E-4 1.171875 -0.1878357l-0.1875 1.4688034q-0.15625 -0.015579224 -0.265625 -0.015548706q-1.0625 2.975464E-4 -1.90625 0.5474167q-0.859375 0.5627365 -0.859375 1.7189865q0 0.921875 0.625 1.5154495q0.609375 0.60920715 1.59375 0.60892487q0.96875 -2.746582E-4 1.625 -0.60983276q0.640625 -0.6095581 0.828125 -1.8439865l1.671875 0.29640198q-0.296875 1.6875839 -1.375 2.609764q-1.09375 0.9221878 -2.71875 0.92264557q-1.109375 3.1280518E-4 -2.046875 -0.48379517q-0.9375 -0.46848297 -1.421875 -1.2964706q-0.5 -0.8279877 -0.5 -1.7498627q0 -0.890625 0.46875 -1.6095047q0.46875 -0.7188873 1.40625 -1.1566467q-1.21875 -0.26528168 -1.875 -1.1557236q-0.671875 -0.87480927 -0.671875 -2.1873093q0 -1.78125 1.296875 -3.0159912q1.296875 -1.2347412 3.28125 -1.235302q1.796875 -5.1116943E-4 2.984375 1.0616531q1.171875 1.0621681 1.34375 2.7652473zm-11.297577 -3.5905533l0 1.90625l-1.90625 5.378723E-4l0 -1.90625l1.90625 -5.378723E-4zm-6.823944 7.37693q1.046875 0.37470245 1.546875 1.0776901q0.5 0.71860504 0.5 1.70298q0 1.484375 -1.0625 2.4846725q-1.078125 1.0159302 -2.84375 1.0164337q-1.78125 5.0354004E-4 -2.859375 -1.0304413q-1.09375 -1.0309372 -1.09375 -2.5153122q0 -0.953125 0.5 -1.656395q0.484375 -0.7032623 1.5 -1.0785522q-1.25 -0.40589142 -1.90625 -1.3119583q-0.65625 -0.9060669 -0.65625 -2.171692q0 -1.7499962 1.234375 -2.9378471q1.234375 -1.1878471 3.25 -1.1884193q2.015625 -5.722046E-4 3.25 1.1865807q1.234375 1.202774 1.234375 2.9840279q0 1.328125 -0.671875 2.2189407q-0.671875 0.89081573 -1.921875 1.2192917zm0.328125 2.8280334q0 -0.96875 -0.609375 -1.5779572q-0.625 -0.6091919 -1.625 -0.6089096q-0.953125 2.670288E-4 -1.5625 0.6098175q-0.625 0.6095505 -0.625 1.4845505q0 0.921875 0.640625 1.5466919q0.625 0.6248245 1.578125 0.62454987q0.953125 -2.670288E-4 1.578125 -0.6098175q0.625 -0.6095505 0.625 -1.4689255zm0.546875 -6.28141q0 -0.71875 -0.328125 -1.3905258q-0.34375 -0.65615463 -1.015625 -1.0309639q-0.671875 -0.35918808 -1.4375 -0.35897064q-1.203125 3.3950806E-4 -1.984375 0.76618576q-0.78125 0.78147125 -0.78125 1.9689713q0 1.203125 0.8125 1.9841461q0.796875 0.79665375 2.0 0.7963104q1.1875 -3.3569336E-4 1.96875 -0.78180695q0.765625 -0.78147125 0.765625 -1.9533463z" fill-rule="nonzero"></path><path fill="#cfd8dc" d="m376.53104 52.999676l53.77951 55.653545l-53.748016 55.65354z" fill-rule="evenodd"></path><path stroke="#004065" stroke-width="1.0" stroke-linejoin="round" stroke-linecap="butt" d="m376.53104 52.999676l53.77951 55.653545l-53.748016 55.65354z" fill-rule="evenodd"></path><path fill="#000000" d="m386.62677 96.4671l0.1567688 1.765625q-1.2812195 0.1875 -1.9372559 0.890625q-0.6404419 0.71875 -0.6401367 1.71875q3.3569336E-4 1.203125 0.90682983 2.03125q0.9064636 0.84375 2.4220886 0.84375q1.421875 0 2.2497864 -0.8125q0.8279114 -0.796875 0.82751465 -2.09375q-2.1362305E-4 -0.796875 -0.37539673 -1.453125q-0.3595581 -0.640625 -0.95339966 -1.015625l0.20266724 -1.578125l7.000366 1.328125l0.0019226074 6.765625l-1.609375 0l-0.0015258789 -5.4375l-3.6408386 -0.734375q0.8440857 1.234375 0.8444824 2.578125q4.8828125E-4 1.78125 -1.233551 3.0q-1.2340088 1.234375 -3.1715088 1.234375q-1.84375 0 -3.1878052 -1.078125q-1.6566162 -1.3125 -1.6572571 -3.578125q-5.187988E-4 -1.859375 1.0303955 -3.03125q1.0465393 -1.171875 2.7652283 -1.34375zm-3.5592957 11.313217l1.90625 0l5.493164E-4 1.90625l-1.90625 0l-5.493164E-4 -1.90625zm11.813751 4.370804l1.609375 0l0.0024719238 8.796875l-1.296875 0q-1.3753662 -1.296875 -3.6726074 -2.578125q-2.2972107 -1.265625 -4.7192993 -1.96875q-1.7032776 -0.5 -3.734558 -0.640625l-4.8828125E-4 -1.71875q1.609375 0.03125 3.875183 0.625q2.281433 0.609375 4.3911133 1.734375q2.1097107 1.140625 3.5475464 2.40625l-0.0018615723 -6.65625z" fill-rule="nonzero"></path><path fill="#cfd8dc" d="m484.54068 164.49016l-53.77954 -55.65355l53.748047 -55.65354z" fill-rule="evenodd"></path><path stroke="#004065" stroke-width="1.0" stroke-linejoin="round" stroke-linecap="butt" d="m484.54068 164.49016l-53.77954 -55.65355l53.748047 -55.65354z" fill-rule="evenodd"></path><path fill="#000000" d="m466.1949 120.89773l-1.609375 0l-0.0024719238 -8.796875l1.296875 0q1.3753662 1.296875 3.6726074 2.578125q2.2972107 1.265625 4.7192993 1.96875q1.7032776 0.5 3.734558 0.640625l4.8828125E-4 1.71875q-1.609375 -0.03125 -3.875183 -0.625q-2.281433 -0.609375 -4.3911133 -1.734375q-2.1097107 -1.140625 -3.5475464 -2.40625l0.0018615723 6.65625zm11.809357 -11.188217l-1.90625 0l-5.493164E-4 -1.90625l1.90625 0l5.493164E-4 1.90625zm-7.376953 -6.823929q-0.37469482 1.046875 -1.0776672 1.546875q-0.7186279 0.5 -1.7030029 0.5q-1.484375 0 -2.4846802 -1.0625q-1.0159302 -1.078125 -1.0164185 -2.84375q-4.8828125E-4 -1.78125 1.0304565 -2.859375q1.0309143 -1.09375 2.5152893 -1.09375q0.953125 0 1.6564026 0.5q0.7032776 0.484375 1.0785522 1.5q0.4058838 -1.25 1.3119507 -1.90625q0.9060669 -0.65625 2.171692 -0.65625q1.75 0 2.9378662 1.234375q1.1878357 1.234375 1.1884155 3.25q5.79834E-4 2.015625 -1.1865845 3.25q-1.2027893 1.234375 -2.9840393 1.234375q-1.328125 0 -2.218933 -0.671875q-0.8908081 -0.671875 -1.2192993 -1.921875zm-2.8280334 0.328125q0.96875 0 1.5779724 -0.609375q0.6091919 -0.625 0.60891724 -1.625q-2.746582E-4 -0.953125 -0.60983276 -1.5625q-0.6095581 -0.625 -1.4845581 -0.625q-0.921875 0 -1.5466919 0.640625q-0.6248169 0.625 -0.62454224 1.578125q2.746582E-4 0.953125 0.60983276 1.578125q0.6095276 0.625 1.4689026 0.625zm6.2814026 0.546875q0.71875 0 1.3905334 -0.328125q0.65615845 -0.34375 1.0309753 -1.015625q0.3591919 -0.671875 0.35897827 -1.4375q-3.3569336E-4 -1.203125 -0.76620483 -1.984375q-0.7814636 -0.78125 -1.9689636 -0.78125q-1.203125 0 -1.9841309 0.8125q-0.7966614 0.796875 -0.7963257 2.0q3.3569336E-4 1.1875 0.7817993 1.96875q0.7814636 0.765625 1.9533386 0.765625z" fill-rule="nonzero"></path><path fill="#cfd8dc" d="m41.632545 377.8399l55.65354 -53.763794l55.65355 53.763794z" fill-rule="evenodd"></path><path stroke="#004065" stroke-width="1.0" stroke-linejoin="round" stroke-linecap="butt" d="m41.632545 377.8399l55.65354 -53.763794l55.65355 53.763794z" fill-rule="evenodd"></path><path fill="#000000" d="m93.88122 369.70956l0 1.609375l-8.984375 0q-0.015625 -0.609375 0.1875 -1.15625q0.34375 -0.921875 1.09375 -1.8125q0.765625 -0.890625 2.1875 -2.0625q2.21875 -1.8125 3.0 -2.875q0.78125 -1.0625 0.78125 -2.015625q0 -0.984375 -0.71875 -1.671875q-0.703125 -0.6875 -1.84375 -0.6875q-1.203125 0 -1.9375 0.734375q-0.71875 0.71875 -0.71875 2.0l-1.71875 -0.171875q0.171875 -1.921875 1.328125 -2.921875q1.15625 -1.015625 3.09375 -1.015625q1.953125 0 3.09375 1.09375q1.140625 1.078125 1.140625 2.6875q0 0.8125 -0.34375 1.609375q-0.328125 0.78125 -1.109375 1.65625q-0.765625 0.859375 -2.5625 2.390625q-1.5 1.265625 -1.9375 1.71875q-0.421875 0.4375 -0.703125 0.890625l6.671875 0zm2.5319672 1.609375l0 -1.90625l1.90625 0l0 1.90625l-1.90625 0zm4.511429 -3.140625l1.59375 -0.15625q0.203125 1.140625 0.78125 1.65625q0.578125 0.5 1.484375 0.5q0.765625 0 1.34375 -0.34375q0.578125 -0.359375 0.953125 -0.953125q0.375 -0.59375 0.625 -1.59375q0.25 -1.0 0.25 -2.03125q0 -0.109375 -0.015625 -0.34375q-0.5 0.796875 -1.375 1.296875q-0.859375 0.5 -1.875 0.5q-1.6875 0 -2.859375 -1.21875q-1.171875 -1.234375 -1.171875 -3.234375q0 -2.078125 1.21875 -3.328125q1.234375 -1.265625 3.0625 -1.265625q1.328125 0 2.421875 0.71875q1.109375 0.703125 1.671875 2.03125q0.578125 1.328125 0.578125 3.828125q0 2.609375 -0.578125 4.15625q-0.5625 1.546875 -1.6875 2.359375q-1.109375 0.796875 -2.609375 0.796875q-1.59375 0 -2.609375 -0.890625q-1.0 -0.890625 -1.203125 -2.484375zm6.828125 -6.0q0 -1.4375 -0.765625 -2.28125q-0.765625 -0.859375 -1.84375 -0.859375q-1.109375 0 -1.9375 0.921875q-0.828125 0.90625 -0.828125 2.34375q0 1.3125 0.78125 2.125q0.796875 0.796875 1.9375 0.796875q1.171875 0 1.90625 -0.796875q0.75 -0.8125 0.75 -2.25z" fill-rule="nonzero"></path><path fill="#cfd8dc" d="m152.80121 270.85614l-55.65354 53.77954l-55.65354 -53.748047z" fill-rule="evenodd"></path><path stroke="#004065" stroke-width="1.0" stroke-linejoin="round" stroke-linecap="butt" d="m152.80121 270.85614l-55.65354 53.77954l-55.65354 -53.748047z" fill-rule="evenodd"></path><path fill="#000000" d="m109.31816 280.98315l-1.671875 0.21920776q-0.28125 -1.4217834 -0.96875 -2.0466003q-0.703125 -0.6247864 -1.6875 -0.6245117q-1.1875 3.3569336E-4 -2.0 0.8130493q-0.8125 0.82836914 -0.8125 2.0314941q0 1.140625 0.765625 1.8904114q0.75 0.7497864 1.90625 0.7494507q0.46875 -1.2207031E-4 1.171875 -0.1878357l-0.1875 1.468811q-0.15625 -0.015594482 -0.265625 -0.015563965q-1.0625 3.0517578E-4 -1.90625 0.5474243q-0.859375 0.56274414 -0.859375 1.7189941q0 0.921875 0.625 1.5154419q0.609375 0.6092224 1.59375 0.60891724q0.96875 -2.746582E-4 1.625 -0.60983276q0.640625 -0.6095581 0.828125 -1.8439636l1.671875 0.29638672q-0.296875 1.6875916 -1.375 2.6097717q-1.09375 0.9221802 -2.71875 0.92263794q-1.109375 3.0517578E-4 -2.046875 -0.48379517q-0.9375 -0.46847534 -1.421875 -1.2964783q-0.5 -0.8279724 -0.5 -1.7498474q0 -0.890625 0.46875 -1.6094971q0.46875 -0.7189026 1.40625 -1.1566467q-1.21875 -0.2652893 -1.875 -1.1557312q-0.671875 -0.8748169 -0.671875 -2.187317q0 -1.78125 1.296875 -3.0159912q1.296875 -1.2347412 3.28125 -1.2352905q1.796875 -5.187988E-4 2.984375 1.0616455q1.171875 1.0621643 1.34375 2.7652588zm-11.297592 -3.5905762l0 1.90625l-1.90625 5.493164E-4l0 -1.90625l1.90625 -5.493164E-4zm-4.261429 3.5949707l-1.671875 0.21920776q-0.28125 -1.4217834 -0.96875 -2.0466003q-0.703125 -0.6247864 -1.6875 -0.6245117q-1.1875 3.3569336E-4 -2.0 0.8130493q-0.8125 0.82836914 -0.8125 2.0314941q0 1.140625 0.765625 1.8904114q0.75 0.7497864 1.90625 0.7494507q0.46875 -1.2207031E-4 1.171875 -0.1878357l-0.1875 1.468811q-0.15625 -0.015563965 -0.265625 -0.015533447q-1.0625 2.746582E-4 -1.90625 0.5473938q-0.859375 0.56274414 -0.859375 1.7189941q0 0.921875 0.625 1.5154419q0.609375 0.6092224 1.59375 0.60894775q0.96875 -2.746582E-4 1.625 -0.60983276q0.640625 -0.6095581 0.828125 -1.8439941l1.671875 0.29638672q-0.296875 1.6875916 -1.375 2.6097717q-1.09375 0.9221802 -2.71875 0.92263794q-1.109375 3.3569336E-4 -2.046875 -0.48379517q-0.9375 -0.46847534 -1.421875 -1.2964478q-0.5 -0.8280029 -0.5 -1.7498779q0 -0.890625 0.46875 -1.6094971q0.46875 -0.7189026 1.40625 -1.1566467q-1.21875 -0.2652893 -1.875 -1.1557312q-0.671875 -0.8748169 -0.671875 -2.187317q0 -1.78125 1.296875 -3.0159912q1.296875 -1.2347412 3.28125 -1.2352905q1.796875 -5.187988E-4 2.984375 1.0616455q1.171875 1.0621643 1.34375 2.7652588z" fill-rule="nonzero"></path><path fill="#cfd8dc" d="m42.944424 268.67676l53.77953 55.653534l-53.74803 55.653564z" fill-rule="evenodd"></path><path stroke="#004065" stroke-width="1.0" stroke-linejoin="round" stroke-linecap="butt" d="m42.944424 268.67676l53.77953 55.653534l-53.74803 55.653564z" fill-rule="evenodd"></path><path fill="#000000" d="m53.071426 312.15982l0.21922302 1.671875q-1.4217987 0.28125 -2.0466042 0.96875q-0.6247978 0.703125 -0.62451935 1.6875q3.3569336E-4 1.1875 0.8130646 1.9999695q0.8283539 0.8125 2.031479 0.8125q1.140625 0 1.8904076 -0.765625q0.7497902 -0.7499695 0.7494621 -1.9062195q-1.335144E-4 -0.46875 -0.18783188 -1.171875l1.4688034 0.1875q-0.015579224 0.15625 -0.015548706 0.265625q3.0136108E-4 1.0625 0.5474129 1.90625q0.56274414 0.8593445 1.7189941 0.8593445q0.921875 0 1.5154495 -0.6249695q0.6091995 -0.609375 0.60892105 -1.59375q-2.746582E-4 -0.96875 -0.60983276 -1.625q-0.6095581 -0.640625 -1.8439865 -0.828125l0.29640198 -1.671875q1.6875839 0.296875 2.609764 1.375q0.9221878 1.09375 0.92264557 2.71875q3.1280518E-4 1.109375 -0.48379517 2.0468445q-0.4684868 0.9375 -1.2964745 1.421875q-0.82798386 0.5 -1.7498589 0.5q-0.890625 0 -1.6095047 -0.46875q-0.7188835 -0.46875 -1.1566505 -1.40625q-0.26527786 1.21875 -1.1557198 1.875q-0.87480927 0.671875 -2.1873093 0.671875q-1.78125 0 -3.0159912 -1.296875q-1.2347412 -1.296875 -1.235302 -3.2812195q-5.1116943E-4 -1.796875 1.0616531 -2.984375q1.0621681 -1.171875 2.7652473 -1.34375zm-3.5905533 11.297577l1.90625 0l5.378723E-4 1.90625l-1.90625 0l-5.378723E-4 -1.90625zm1.61306 13.027069l-1.609375 0l-0.002544403 -8.9844055q0.6093712 -0.015625 1.1563034 0.1875q0.9219742 0.34375 1.812809 1.0937805q0.89084244 0.765625 2.0631218 2.1875q1.8131256 2.21875 2.8758469 3.0q1.0627213 0.78125 2.0158463 0.78125q0.984375 0 1.6716728 -0.71875q0.68730164 -0.703125 0.6869774 -1.84375q-3.3950806E-4 -1.203125 -0.7349205 -1.9375q-0.718956 -0.71875 -2.000206 -0.71875l0.17139053 -1.7187805q1.9219208 0.171875 2.9222488 1.3281555q1.0159531 1.15625 1.0165024 3.09375q5.531311E-4 1.953125 -1.0928764 3.09375q-1.0778008 1.140625 -2.6871758 1.140625q-0.8125 0 -1.6094742 -0.34375q-0.78134155 -0.328125 -1.6565628 -1.109375q-0.85959244 -0.765625 -2.3913498 -2.5625q-1.2660484 -1.5 -1.7192993 -1.9375q-0.43761826 -0.421875 -0.89082336 -0.703125l0.0018882751 6.671875z" fill-rule="nonzero"></path><path fill="#cfd8dc" d="m150.95407 380.16724l-53.779526 -55.653534l53.74803 -55.653564z" fill-rule="evenodd"></path><path stroke="#004065" stroke-width="1.0" stroke-linejoin="round" stroke-linecap="butt" d="m150.95407 380.16724l-53.779526 -55.653534l53.74803 -55.653564z" fill-rule="evenodd"></path><path fill="#000000" d="m144.41904 330.40292l4.7302246E-4 1.671875l-10.640625 0q0.57829285 0.59375 1.1567078 1.578125q0.56277466 0.984375 0.8598633 1.765625l-1.625 0q-0.6566467 -1.40625 -1.5944366 -2.453125q-0.9377899 -1.046875 -1.8129272 -1.484375l-3.0517578E-4 -1.078125l13.65625 0zm-0.0014190674 -5.016327l-1.90625 0l-5.340576E-4 -1.90625l1.90625 0l5.340576E-4 1.90625zm-0.0029754639 -10.542694l4.7302246E-4 1.671875l-10.640625 0q0.57829285 0.59375 1.1566925 1.578125q0.56277466 0.984375 0.85987854 1.765625l-1.625 0q-0.6566467 -1.40625 -1.5944519 -2.453125q-0.9377899 -1.046875 -1.812912 -1.484375l-3.0517578E-4 -1.078125l13.65625 0z" fill-rule="nonzero"></path><path fill="#cfd8dc" d="m152.68765 378.16275l55.653534 -53.763763l55.653534 53.763763z" fill-rule="evenodd"></path><path stroke="#004065" stroke-width="1.0" stroke-linejoin="round" stroke-linecap="butt" d="m152.68765 378.16275l55.653534 -53.763763l55.653534 53.763763z" fill-rule="evenodd"></path><path fill="#000000" d="m200.65637 367.5637l0 -1.6875l5.125 0l0 1.6875l-5.125 0zm6.400177 0.484375l1.671875 -0.21875q0.28125 1.421875 0.96875 2.046875q0.703125 0.625 1.6875 0.625q1.1875 0 2.0 -0.8125q0.8125 -0.828125 0.8125 -2.03125q0 -1.140625 -0.765625 -1.890625q-0.75 -0.75 -1.90625 -0.75q-0.46875 0 -1.171875 0.1875l0.1875 -1.46875q0.15625 0.015625 0.265625 0.015625q1.0625 0 1.90625 -0.546875q0.859375 -0.5625 0.859375 -1.71875q0 -0.921875 -0.625 -1.515625q-0.609375 -0.609375 -1.59375 -0.609375q-0.96875 0 -1.625 0.609375q-0.640625 0.609375 -0.828125 1.84375l-1.671875 -0.296875q0.296875 -1.6875 1.375 -2.609375q1.09375 -0.921875 2.71875 -0.921875q1.109375 0 2.046875 0.484375q0.9375 0.46875 1.421875 1.296875q0.5 0.828125 0.5 1.75q0 0.890625 -0.46875 1.609375q-0.46875 0.71875 -1.40625 1.15625q1.21875 0.265625 1.875 1.15625q0.671875 0.875 0.671875 2.1875q0 1.78125 -1.296875 3.015625q-1.296875 1.234375 -3.28125 1.234375q-1.796875 0 -2.984375 -1.0625q-1.171875 -1.0625 -1.34375 -2.765625z" fill-rule="nonzero"></path><path fill="#cfd8dc" d="m263.85632 271.179l-55.65355 53.77954l-55.65355 -53.748016z" fill-rule="evenodd"></path><path stroke="#004065" stroke-width="1.0" stroke-linejoin="round" stroke-linecap="butt" d="m263.85632 271.179l-55.65355 53.77954l-55.65355 -53.748016z" fill-rule="evenodd"></path><path fill="#000000" d="m215.88759 281.79166l0 1.6875l-5.125 0.0014343262l0 -1.6875l5.125 -0.0014343262zm-6.384552 -0.51382446l-1.765625 0.15673828q-0.1875 -1.281189 -0.890625 -1.9372559q-0.71875 -0.6404114 -1.71875 -0.6401367q-1.203125 3.6621094E-4 -2.03125 0.90682983q-0.84375 0.90649414 -0.84375 2.4221191q0 1.421875 0.8125 2.2497864q0.796875 0.82788086 2.09375 0.82751465q0.796875 -2.1362305E-4 1.453125 -0.37539673q0.640625 -0.3595581 1.015625 -0.9534302l1.578125 0.20269775l-1.328125 7.000366l-6.765625 0.0019226074l0 -1.609375l5.4375 -0.0015563965l0.734375 -3.6408386q-1.234375 0.8441162 -2.578125 0.8444824q-1.78125 5.187988E-4 -3.0 -1.2335205q-1.234375 -1.2340088 -1.234375 -3.1715088q0 -1.84375 1.078125 -3.1878052q1.3125 -1.6566467 3.578125 -1.6572876q1.859375 -5.187988E-4 3.03125 1.0303955q1.171875 1.0465393 1.34375 2.7652588z" fill-rule="nonzero"></path><path fill="#cfd8dc" d="m153.99953 268.9996l53.779526 55.653564l-53.74803 55.653534z" fill-rule="evenodd"></path><path stroke="#004065" stroke-width="1.0" stroke-linejoin="round" stroke-linecap="butt" d="m153.99953 268.9996l53.779526 55.653564l-53.74803 55.653534z" fill-rule="evenodd"></path><path fill="#000000" d="m162.14464 321.2483l-1.609375 0l-0.0025482178 -8.984375q0.609375 -0.015625 1.1562958 0.1875q0.9219818 0.34375 1.8128204 1.09375q0.8908386 0.765625 2.0631104 2.1875q1.8131256 2.21875 2.8758545 3.0q1.0627136 0.78125 2.0158386 0.78125q0.984375 0 1.6716766 -0.71875q0.68730164 -0.703125 0.6869812 -1.84375q-3.3569336E-4 -1.203125 -0.7349243 -1.9375q-0.71894836 -0.71875 -2.0001984 -0.71875l0.17138672 -1.71875q1.9219208 0.171875 2.9222412 1.328125q1.0159607 1.15625 1.01651 3.09375q5.493164E-4 1.953125 -1.0928802 3.09375q-1.0778046 1.140625 -2.6871796 1.140625q-0.8125 0 -1.6094666 -0.34375q-0.78134155 -0.328125 -1.6565704 -1.109375q-0.8595886 -0.765625 -2.3913422 -2.5625q-1.2660522 -1.5 -1.7192993 -1.9375q-0.43762207 -0.421875 -0.89082336 -0.703125l0.0018920898 6.671875zm-1.6086578 2.531952l1.90625 0l5.340576E-4 1.90625l-1.90625 0l-5.340576E-4 -1.90625zm3.1418915 4.511444l0.15670776 1.59375q-1.1405792 0.203125 -1.6560364 0.78125q-0.49983215 0.578125 -0.49957275 1.484375q2.1362305E-4 0.765625 0.34413147 1.34375q0.3595276 0.578125 0.9533844 0.953125q0.5938568 0.375 1.5939331 0.625q1.0000763 0.25 2.0313263 0.25q0.109375 0 0.34373474 -0.015625q-0.7970123 -0.5 -1.2972565 -1.375q-0.50024414 -0.859375 -0.50053406 -1.875q-4.7302246E-4 -1.6875 1.2179413 -2.859375q1.2340393 -1.171875 3.2340393 -1.171875q2.078125 0 3.328476 1.21875q1.265976 1.234375 1.2664948 3.0625q3.6621094E-4 1.328125 -0.71806335 2.421875q-0.7028198 1.109375 -2.030777 1.671875q-1.3279724 0.578125 -3.8279724 0.578125q-2.609375 0 -4.1564026 -0.578125q-1.5470428 -0.5625 -2.3598633 -1.6875q-0.7971802 -1.109375 -0.7976074 -2.609375q-4.5776367E-4 -1.59375 0.8898773 -2.609375q0.89035034 -1.0 2.4840393 -1.203125zm6.001938 6.828125q1.4375 0 2.2810364 -0.765625q0.8591461 -0.765625 0.85884094 -1.84375q-3.0517578E-4 -1.109375 -0.9224243 -1.9375q-0.9064789 -0.828125 -2.343979 -0.828125q-1.3125 0 -2.124771 0.78125q-0.7966614 0.796875 -0.7963257 1.9375q3.2043457E-4 1.171875 0.79740906 1.90625q0.8127136 0.75 2.2502136 0.75z" fill-rule="nonzero"></path><path fill="#cfd8dc" d="m262.0092 380.49008l-53.77954 -55.653534l53.748047 -55.653534z" fill-rule="evenodd"></path><path stroke="#004065" stroke-width="1.0" stroke-linejoin="round" stroke-linecap="butt" d="m262.0092 380.49008l-53.77954 -55.653534l53.748047 -55.653534z" fill-rule="evenodd"></path><path fill="#000000" d="m251.398 337.70923l-1.6875 0l-0.001449585 -5.125l1.6875 0l0.001449585 5.125zm4.074539 -12.681427l4.7302246E-4 1.671875l-10.640625 0q0.57829285 0.59375 1.1566925 1.578125q0.56277466 0.984375 0.85987854 1.765625l-1.625 0q-0.6566467 -1.40625 -1.5944519 -2.453125q-0.9377899 -1.046875 -1.812912 -1.484375l-3.0517578E-4 -1.078125l13.65625 0zm-0.0029296875 -10.375702l4.7302246E-4 1.671875l-10.640625 0q0.57829285 0.59375 1.1566925 1.578125q0.56277466 0.984375 0.85987854 1.765625l-1.625 0q-0.656662 -1.40625 -1.5944519 -2.453125q-0.9377899 -1.046875 -1.8129272 -1.484375l-3.0517578E-4 -1.078125l13.656265 0z" fill-rule="nonzero"></path><path fill="#cfd8dc" d="m263.79132 377.72446l55.653564 -53.763763l55.653534 53.763763z" fill-rule="evenodd"></path><path stroke="#004065" stroke-width="1.0" stroke-linejoin="round" stroke-linecap="butt" d="m263.79132 377.72446l55.653564 -53.763763l55.653534 53.763763z" fill-rule="evenodd"></path><path fill="#000000" d="m306.5722 367.1254l0 -1.6875l5.125 0l0 1.6875l-5.125 0zm12.681427 4.078125l-1.671875 0l0 -10.640625q-0.59375 0.578125 -1.578125 1.15625q-0.984375 0.5625 -1.765625 0.859375l0 -1.625q1.40625 -0.65625 2.453125 -1.59375q1.046875 -0.9375 1.484375 -1.8125l1.078125 0l0 13.65625zm4.203827 -11.8125l0 -1.609375l8.796875 0l0 1.296875q-1.296875 1.375 -2.578125 3.671875q-1.265625 2.296875 -1.96875 4.71875q-0.5 1.703125 -0.640625 3.734375l-1.71875 0q0.03125 -1.609375 0.625 -3.875q0.609375 -2.28125 1.734375 -4.390625q1.140625 -2.109375 2.40625 -3.546875l-6.65625 0z" fill-rule="nonzero"></path><path fill="#cfd8dc" d="m374.96 270.74072l-55.653534 53.77951l-55.653534 -53.748016z" fill-rule="evenodd"></path><path stroke="#004065" stroke-width="1.0" stroke-linejoin="round" stroke-linecap="butt" d="m374.96 270.74072l-55.653534 53.77951l-55.653534 -53.748016z" fill-rule="evenodd"></path><path fill="#000000" d="m332.17914 281.3519l0 1.6875l-5.125 0.0014343262l0 -1.6875l5.125 -0.0014343262zm-12.681427 -4.0745544l1.671875 -4.5776367E-4l0 10.640625q0.59375 -0.5783081 1.578125 -1.1567078q0.984375 -0.56277466 1.765625 -0.8598633l0 1.625q-1.40625 0.6566467 -2.453125 1.5944519q-1.046875 0.93777466 -1.484375 1.8128967l-1.078125 3.0517578E-4l0 -13.65625zm-4.0788574 3.5636597l-1.765625 0.1567688q-0.1875 -1.2812195 -0.890625 -1.9372559q-0.71875 -0.6404419 -1.71875 -0.6401367q-1.203125 3.3569336E-4 -2.03125 0.90682983q-0.84375 0.9064636 -0.84375 2.4220886q0 1.421875 0.8125 2.2497864q0.796875 0.82788086 2.09375 0.82751465q0.796875 -2.1362305E-4 1.453125 -0.37539673q0.640625 -0.3595581 1.015625 -0.95339966l1.578125 0.20266724l-1.328125 7.000366l-6.765625 0.0019226074l0 -1.609375l5.4375 -0.0015258789l0.734375 -3.6408386q-1.234375 0.8440857 -2.578125 0.8444824q-1.78125 4.8828125E-4 -3.0 -1.233551q-1.234375 -1.2340088 -1.234375 -3.1715088q0 -1.84375 1.078125 -3.1878052q1.3125 -1.6566162 3.578125 -1.6572571q1.859375 -5.493164E-4 3.03125 1.0303955q1.171875 1.0465393 1.34375 2.7652283z" fill-rule="nonzero"></path><path fill="#cfd8dc" d="m265.1032 268.56134l53.77951 55.653534l-53.748016 55.653534z" fill-rule="evenodd"></path><path stroke="#004065" stroke-width="1.0" stroke-linejoin="round" stroke-linecap="butt" d="m265.1032 268.56134l53.77951 55.653534l-53.748016 55.653534z" fill-rule="evenodd"></path><path fill="#000000" d="m278.33957 312.02875q2.421875 0 3.8907776 0.5q1.4689026 0.5 2.2660522 1.46875q0.79714966 0.984375 0.7975464 2.46875q3.3569336E-4 1.09375 -0.43695068 1.921875q-0.43725586 0.828125 -1.2808533 1.359375q-0.8279724 0.546875 -2.0153809 0.84375q-1.1874084 0.3125 -3.2186584 0.3125q-2.390625 0 -3.8595276 -0.5q-1.4689026 -0.484375 -2.2816772 -1.46875q-0.79714966 -0.96875 -0.7975769 -2.46875q-5.493164E-4 -1.96875 1.4053955 -3.078125q1.7027283 -1.359375 5.5308533 -1.359375zm4.8828125E-4 1.71875q-3.34375 0 -4.452881 0.78125q-1.1091614 0.796875 -1.1088562 1.9375q3.3569336E-4 1.15625 1.1099243 1.9375q1.1252441 0.78125 4.453369 0.78125q3.359375 0 4.468506 -0.78125q1.1091614 -0.78125 1.1088257 -1.953125q-3.0517578E-4 -1.15625 -0.9848938 -1.828125q-1.2346191 -0.875 -4.593994 -0.875zm-6.700409 9.594482l1.90625 0l5.493164E-4 1.90625l-1.90625 0l-5.493164E-4 -1.90625zm0.0027160645 9.605164l3.25 0l-0.0016479492 -5.90625l1.53125 0l8.8142395 6.21875l3.9672852E-4 1.359375l-8.8125 0l5.187988E-4 1.84375l-1.53125 0l-5.187988E-4 -1.84375l-3.25 0l-4.8828125E-4 -1.671875zm4.78125 0l6.140625 0l-6.141815 -4.25l0.0011901855 4.25z" fill-rule="nonzero"></path><path fill="#cfd8dc" d="m373.11285 380.05182l-53.77951 -55.653564l53.748016 -55.653534z" fill-rule="evenodd"></path><path stroke="#004065" stroke-width="1.0" stroke-linejoin="round" stroke-linecap="butt" d="m373.11285 380.05182l-53.77951 -55.653564l53.748016 -55.653534z" fill-rule="evenodd"></path><path fill="#000000" d="m366.57782 330.2875l4.8828125E-4 1.671875l-10.640625 0q0.5782776 0.59375 1.1566772 1.578125q0.5628052 0.984375 0.8598938 1.765625l-1.625 0q-0.6566467 -1.40625 -1.5944519 -2.453125q-0.9378052 -1.046875 -1.8129272 -1.484375l-3.0517578E-4 -1.078125l13.65625 0zm-0.0014038086 -5.016327l-1.90625 0l-5.493164E-4 -1.90625l1.90625 0l5.493164E-4 1.90625zm-1.6130676 -13.027069l1.609375 0l0.002532959 8.984375q-0.609375 0.015625 -1.1562805 -0.1875q-0.9219971 -0.34375 -1.8128357 -1.09375q-0.8908386 -0.765625 -2.0631104 -2.1875q-1.8131104 -2.21875 -2.8758545 -3.0q-1.0627136 -0.78125 -2.0158386 -0.78125q-0.984375 0 -1.6716614 0.71875q-0.6873169 0.703125 -0.6869812 1.84375q3.3569336E-4 1.203125 0.7349243 1.9375q0.7189331 0.71875 2.000183 0.71875l-0.17138672 1.71875q-1.9219055 -0.171875 -2.9222412 -1.328125q-1.0159607 -1.15625 -1.01651 -3.09375q-5.493164E-4 -1.953125 1.0928955 -3.09375q1.0777893 -1.140625 2.6871643 -1.140625q0.8125 0 1.6094666 0.34375q0.78134155 0.328125 1.6565857 1.109375q0.8595886 0.765625 2.391327 2.5625q1.2660522 1.5 1.7192993 1.9375q0.43762207 0.421875 0.8908386 0.703125l-0.0018920898 -6.671875z" fill-rule="nonzero"></path><path fill="#cfd8dc" d="m375.21915 378.1628l55.653534 -53.763763l55.653564 53.763763z" fill-rule="evenodd"></path><path stroke="#004065" stroke-width="1.0" stroke-linejoin="round" stroke-linecap="butt" d="m375.21915 378.1628l55.653534 -53.763763l55.653564 53.763763z" fill-rule="evenodd"></path><path fill="#000000" d="m418.0 367.56375l0 -1.6875l5.125 0l0 1.6875l-5.125 0zm12.681427 4.078125l-1.671875 0l0 -10.640625q-0.59375 0.578125 -1.578125 1.15625q-0.984375 0.5625 -1.765625 0.859375l0 -1.625q1.40625 -0.65625 2.453125 -1.59375q1.046875 -0.9375 1.484375 -1.8125l1.078125 0l0 13.65625zm12.750732 -10.265625l-1.65625 0.125q-0.21875 -0.984375 -0.640625 -1.421875q-0.671875 -0.71875 -1.65625 -0.71875q-0.8125 0 -1.40625 0.4375q-0.796875 0.578125 -1.25 1.6875q-0.453125 1.09375 -0.46875 3.140625q0.609375 -0.921875 1.46875 -1.359375q0.875 -0.453125 1.828125 -0.453125q1.671875 0 2.84375 1.234375q1.171875 1.234375 1.171875 3.171875q0 1.28125 -0.546875 2.390625q-0.546875 1.09375 -1.515625 1.6875q-0.96875 0.578125 -2.1875 0.578125q-2.09375 0 -3.40625 -1.53125q-1.3125 -1.546875 -1.3125 -5.0625q0 -3.953125 1.453125 -5.734375q1.265625 -1.5625 3.421875 -1.5625q1.609375 0 2.625 0.90625q1.03125 0.890625 1.234375 2.484375zm-6.8125 5.859375q0 0.859375 0.359375 1.65625q0.375 0.78125 1.03125 1.203125q0.65625 0.40625 1.375 0.40625q1.0625 0 1.8125 -0.84375q0.765625 -0.859375 0.765625 -2.328125q0 -1.40625 -0.75 -2.21875q-0.75 -0.8125 -1.890625 -0.8125q-1.125 0 -1.921875 0.8125q-0.78125 0.8125 -0.78125 2.125z" fill-rule="nonzero"></path><path fill="#cfd8dc" d="m486.38782 271.17905l-55.653534 53.77954l-55.653564 -53.748047z" fill-rule="evenodd"></path><path stroke="#004065" stroke-width="1.0" stroke-linejoin="round" stroke-linecap="butt" d="m486.38782 271.17905l-55.653534 53.77954l-55.653564 -53.748047z" fill-rule="evenodd"></path><path fill="#000000" d="m435.14087 284.41763q0 2.421875 -0.5 3.8907776q-0.5 1.4688721 -1.46875 2.2660217q-0.984375 0.79714966 -2.46875 0.7975769q-1.09375 3.0517578E-4 -1.921875 -0.43695068q-0.828125 -0.43725586 -1.359375 -1.2808533q-0.546875 -0.8279724 -0.84375 -2.0154114q-0.3125 -1.1874084 -0.3125 -3.2186584q0 -2.390625 0.5 -3.859497q0.484375 -1.4689026 1.46875 -2.2816772q0.96875 -0.79714966 2.46875 -0.7975769q1.96875 -5.493164E-4 3.078125 1.4053955q1.359375 1.7027283 1.359375 5.5308533zm-1.71875 4.8828125E-4q0 -3.34375 -0.78125 -4.4529114q-0.796875 -1.1091309 -1.9375 -1.1088257q-1.15625 3.3569336E-4 -1.9375 1.1099243q-0.78125 1.1252136 -0.78125 4.4533386q0 3.359375 0.78125 4.4685364q0.78125 1.1091614 1.953125 1.1088257q1.15625 -3.3569336E-4 1.828125 -0.9848938q0.875 -1.2346191 0.875 -4.593994z" fill-rule="nonzero"></path><path fill="#cfd8dc" d="m376.53104 268.99966l53.77951 55.653564l-53.748016 55.653534z" fill-rule="evenodd"></path><path stroke="#004065" stroke-width="1.0" stroke-linejoin="round" stroke-linecap="butt" d="m376.53104 268.99966l53.77951 55.653564l-53.748016 55.653534z" fill-rule="evenodd"></path><path fill="#000000" d="m387.1422 311.78055l1.6875 0l0.0014343262 5.125l-1.6875 0l-0.0014343262 -5.125zm-4.0745544 12.681427l-4.5776367E-4 -1.671875l10.640625 0q-0.5783081 -0.59375 -1.1567078 -1.578125q-0.56277466 -0.984375 -0.8598633 -1.765625l1.625 0q0.6566467 1.40625 1.5944519 2.453125q0.93777466 1.046875 1.8128967 1.484375l3.0517578E-4 1.078125l-13.65625 0zm0.002960205 10.375702l-4.8828125E-4 -1.671875l10.640625 0q-0.5782776 -0.59375 -1.1567078 -1.578125q-0.56277466 -0.984375 -0.8598633 -1.765625l1.625 0q0.6566467 1.40625 1.5944519 2.453125q0.9378052 1.046875 1.8129272 1.484375l3.0517578E-4 1.078125l-13.65625 0z" fill-rule="nonzero"></path><path fill="#cfd8dc" d="m484.54068 380.49014l-53.77954 -55.653534l53.748047 -55.653534z" fill-rule="evenodd"></path><path stroke="#004065" stroke-width="1.0" stroke-linejoin="round" stroke-linecap="butt" d="m484.54068 380.49014l-53.77954 -55.653534l53.748047 -55.653534z" fill-rule="evenodd"></path><path fill="#000000" d="m473.92804 332.52142l-1.6875 0l-0.0014648438 -5.125l1.6875 0l0.0014648438 5.125zm0.48254395 -6.400177l-0.21920776 -1.671875q1.4217834 -0.28125 2.0466003 -0.96875q0.6247864 -0.703125 0.6245117 -1.6875q-3.3569336E-4 -1.1875 -0.8130493 -2.0q-0.82836914 -0.8125 -2.0314941 -0.8125q-1.140625 0 -1.8904114 0.765625q-0.7497864 0.75 -0.7494507 1.90625q1.2207031E-4 0.46875 0.1878357 1.171875l-1.468811 -0.1875q0.015594482 -0.15625 0.015563965 -0.265625q-3.0517578E-4 -1.0625 -0.5474243 -1.90625q-0.56274414 -0.859375 -1.7189941 -0.859375q-0.921875 0 -1.5154419 0.625q-0.6092224 0.609375 -0.60891724 1.59375q2.746582E-4 0.96875 0.60983276 1.625q0.6095581 0.640625 1.8439636 0.828125l-0.29638672 1.671875q-1.6875916 -0.296875 -2.6097717 -1.375q-0.9221802 -1.09375 -0.92263794 -2.71875q-3.0517578E-4 -1.109375 0.48379517 -2.046875q0.46847534 -0.9375 1.2964783 -1.421875q0.8279724 -0.5 1.7498474 -0.5q0.890625 0 1.6094971 0.46875q0.7189026 0.46875 1.1566467 1.40625q0.2652893 -1.21875 1.1557312 -1.875q0.8748169 -0.671875 2.187317 -0.671875q1.78125 0 3.0159912 1.296875q1.2347412 1.296875 1.2352905 3.28125q5.187988E-4 1.796875 -1.0616455 2.984375q-1.0621643 1.171875 -2.7652588 1.34375z" fill-rule="nonzero"></path><path fill="#cfd8dc" d="m41.933044 269.95804l55.65354 -53.76378l55.65354 53.76378z" fill-rule="evenodd"></path><path stroke="#004065" stroke-width="1.0" stroke-linejoin="round" stroke-linecap="butt" d="m41.933044 269.95804l55.65354 -53.76378l55.65354 53.76378z" fill-rule="evenodd"></path><path fill="#000000" d="m85.41609 259.84335l1.671875 -0.21875q0.28125 1.421875 0.96875 2.046875q0.703125 0.625 1.6875 0.625q1.1875 0 2.0 -0.8125q0.8125 -0.828125 0.8125 -2.03125q0 -1.140625 -0.765625 -1.890625q-0.75 -0.75 -1.90625 -0.75q-0.46875 0 -1.171875 0.1875l0.1875 -1.4687653q0.15625 0.015625 0.265625 0.015625q1.0625 0 1.90625 -0.546875q0.859375 -0.5625 0.859375 -1.71875q0 -0.921875 -0.625 -1.515625q-0.609375 -0.609375 -1.59375 -0.609375q-0.96875 0 -1.625 0.609375q-0.640625 0.609375 -0.828125 1.84375l-1.671875 -0.296875q0.296875 -1.6875 1.375 -2.609375q1.09375 -0.921875 2.71875 -0.921875q1.109375 0 2.046875 0.484375q0.9375 0.46875 1.421875 1.296875q0.5 0.828125 0.5 1.75q0 0.890625 -0.46875 1.609375q-0.46875 0.71875 -1.40625 1.1562653q1.21875 0.265625 1.875 1.15625q0.671875 0.875 0.671875 2.1875q0 1.78125 -1.296875 3.015625q-1.296875 1.234375 -3.28125 1.234375q-1.796875 0 -2.984375 -1.0625q-1.171875 -1.0625 -1.34375 -2.765625zm11.297592 3.59375l0 -1.90625l1.90625 0l0 1.90625l-1.90625 0zm13.027054 -1.609375l0 1.609375l-8.984375 0q-0.015625 -0.609375 0.1875 -1.15625q0.34375 -0.921875 1.09375 -1.8125q0.765625 -0.890625 2.1875 -2.0625q2.21875 -1.8125 3.0 -2.8750153q0.78125 -1.0625 0.78125 -2.015625q0 -0.984375 -0.71875 -1.671875q-0.703125 -0.6875 -1.84375 -0.6875q-1.203125 0 -1.9375 0.734375q-0.71875 0.71875 -0.71875 2.0l-1.71875 -0.171875q0.171875 -1.921875 1.328125 -2.921875q1.15625 -1.015625 3.09375 -1.015625q1.953125 0 3.09375 1.09375q1.140625 1.078125 1.140625 2.6875q0 0.8125 -0.34375 1.609375q-0.328125 0.78125 -1.109375 1.6562653q-0.765625 0.859375 -2.5625 2.390625q-1.5 1.265625 -1.9375 1.71875q-0.421875 0.4375 -0.703125 0.890625l6.671875 0z" fill-rule="nonzero"></path><path fill="#cfd8dc" d="m153.10172 162.97429l-55.65355 53.779526l-55.65354 -53.74803z" fill-rule="evenodd"></path><path stroke="#004065" stroke-width="1.0" stroke-linejoin="round" stroke-linecap="butt" d="m153.10172 162.97429l-55.65355 53.779526l-55.65354 -53.74803z" fill-rule="evenodd"></path><path fill="#000000" d="m109.61866 173.10129l-1.671875 0.21922302q-0.28125 -1.4217987 -0.96875 -2.0466003q-0.703125 -0.62480164 -1.6875 -0.624527q-1.1875 3.3569336E-4 -2.0 0.8130646q-0.8125 0.8283539 -0.8125 2.031479q0 1.140625 0.765625 1.8904114q0.75 0.7497864 1.90625 0.74946594q0.46875 -1.373291E-4 1.171875 -0.1878357l-0.1875 1.4687958q-0.15625 -0.015579224 -0.265625 -0.015548706q-1.0625 3.0517578E-4 -1.90625 0.5474243q-0.859375 0.56274414 -0.859375 1.7189941q0 0.921875 0.625 1.5154419q0.609375 0.60920715 1.59375 0.60891724q0.96875 -2.593994E-4 1.625 -0.60983276q0.640625 -0.6095581 0.828125 -1.8439789l1.671875 0.29640198q-0.296875 1.6875763 -1.375 2.6097565q-1.09375 0.92219543 -2.71875 0.9226532q-1.109375 3.0517578E-4 -2.046875 -0.48379517q-0.9375 -0.4684906 -1.421875 -1.2964783q-0.5 -0.8279877 -0.5 -1.7498627q0 -0.890625 0.46875 -1.6094971q0.46875 -0.7188873 1.40625 -1.1566467q-1.21875 -0.2652893 -1.875 -1.1557312q-0.671875 -0.87480164 -0.671875 -2.1873016q0 -1.78125 1.296875 -3.0159912q1.296875 -1.2347412 3.28125 -1.2353058q1.796875 -5.0354004E-4 2.984375 1.0616608q1.171875 1.0621643 1.34375 2.7652435zm-11.297592 -3.590561l0 1.90625l-1.90625 5.493164E-4l0 -1.90625l1.90625 -5.493164E-4zm-4.245804 3.5637054l-1.765625 0.15675354q-0.1875 -1.2812042 -0.890625 -1.9372559q-0.71875 -0.6404114 -1.71875 -0.6401367q-1.203125 3.3569336E-4 -2.03125 0.90682983q-0.84375 0.9064789 -0.84375 2.422104q0 1.421875 0.8125 2.249771q0.796875 0.8279114 2.09375 0.82754517q0.796875 -2.2888184E-4 1.453125 -0.375412q0.640625 -0.3595581 1.015625 -0.9534149l1.578125 0.2026825l-1.328125 7.000366l-6.765625 0.0019226074l0 -1.609375l5.4375 -0.0015411377l0.734375 -3.6408386q-1.234375 0.84410095 -2.578125 0.8444824q-1.78125 5.0354004E-4 -3.0 -1.2335205q-1.234375 -1.234024 -1.234375 -3.171524q0 -1.8437653 1.078125 -3.1878052q1.3125 -1.6566315 3.578125 -1.6572723q1.859375 -5.187988E-4 3.03125 1.0303955q1.171875 1.0465393 1.34375 2.7652435z" fill-rule="nonzero"></path><path fill="#cfd8dc" d="m43.244923 160.7949l53.77953 55.653534l-53.74803 55.65355z" fill-rule="evenodd"></path><path stroke="#004065" stroke-width="1.0" stroke-linejoin="round" stroke-linecap="butt" d="m43.244923 160.7949l53.77953 55.653534l-53.74803 55.65355z" fill-rule="evenodd"></path><path fill="#000000" d="m53.371925 204.27795l0.21922302 1.671875q-1.4217949 0.28125 -2.0466003 0.96875q-0.62480164 0.703125 -0.62452316 1.6875q3.3569336E-4 1.1875 0.8130646 2.0q0.8283539 0.8125 2.031479 0.8125q1.140625 0 1.8904114 -0.765625q0.7497864 -0.75 0.7494583 -1.90625q-1.335144E-4 -0.46875 -0.18783188 -1.171875l1.4688034 0.1875q-0.015579224 0.15625 -0.015548706 0.265625q3.0136108E-4 1.0625 0.5474129 1.90625q0.56274414 0.859375 1.7189941 0.859375q0.921875 0 1.5154495 -0.625q0.60920334 -0.609375 0.60892487 -1.59375q-2.746582E-4 -0.96875 -0.6098366 -1.625q-0.6095581 -0.640625 -1.8439827 -0.828125l0.29640198 -1.671875q1.6875839 0.296875 2.609764 1.375q0.922184 1.09375 0.92264175 2.71875q3.1661987E-4 1.109375 -0.48379517 2.046875q-0.46848297 0.9375 -1.2964706 1.421875q-0.82798386 0.5 -1.7498589 0.5q-0.890625 0 -1.6095085 -0.46875q-0.7188835 -0.46875 -1.1566505 -1.40625q-0.26527786 1.21875 -1.155716 1.875q-0.8748131 0.671875 -2.187313 0.671875q-1.78125 0 -3.0159912 -1.296875q-1.2347412 -1.296875 -1.235302 -3.28125q-5.1116943E-4 -1.796875 1.0616531 -2.984375q1.0621681 -1.171875 2.7652473 -1.34375zm-3.5905533 11.297592l1.90625 0l5.378723E-4 1.90625l-1.90625 0l-5.378723E-4 -1.90625zm0.0027160645 9.605179l3.25 0l-0.0016708374 -5.90625l1.53125 0l8.814262 6.21875l3.8146973E-4 1.359375l-8.8125 0l5.226135E-4 1.84375l-1.53125 0l-5.226135E-4 -1.84375l-3.25 0l-4.7302246E-4 -1.671875zm4.78125 0l6.140625 0l-6.1418266 -4.25l0.0012016296 4.25z" fill-rule="nonzero"></path><path fill="#cfd8dc" d="m151.25458 272.28537l-53.779533 -55.653534l53.748024 -55.65355z" fill-rule="evenodd"></path><path stroke="#004065" stroke-width="1.0" stroke-linejoin="round" stroke-linecap="butt" d="m151.25458 272.28537l-53.779533 -55.653534l53.748024 -55.65355z" fill-rule="evenodd"></path><path fill="#000000" d="m141.12758 228.80232l-0.21922302 -1.671875q1.4217834 -0.28125 2.0466003 -0.96875q0.62480164 -0.70310974 0.6245117 -1.6874847q-3.3569336E-4 -1.1875 -0.8130646 -2.0q-0.8283539 -0.8125 -2.031479 -0.8125q-1.140625 0 -1.8904114 0.765625q-0.7497864 0.75 -0.7494507 1.90625q1.2207031E-4 0.46875 0.18782043 1.171875l-1.4687958 -0.1875q0.015579224 -0.15625 0.015548706 -0.265625q-3.0517578E-4 -1.0625 -0.54740906 -1.90625q-0.56274414 -0.859375 -1.7189941 -0.859375q-0.921875 0 -1.5154572 0.625q-0.6091919 0.609375 -0.60891724 1.59375q2.746582E-4 0.96875 0.60983276 1.6249847q0.6095581 0.640625 1.8439789 0.828125l-0.29640198 1.671875q-1.6875763 -0.296875 -2.6097565 -1.375q-0.9221802 -1.09375 -0.9226532 -2.7187347q-3.0517578E-4 -1.109375 0.48379517 -2.046875q0.4684906 -0.9375 1.2964783 -1.421875q0.8279877 -0.5 1.7498627 -0.5q0.890625 0 1.6094971 0.46875q0.7188873 0.46875 1.156662 1.40625q0.26527405 -1.21875 1.155716 -1.875q0.87480164 -0.671875 2.1873016 -0.671875q1.78125 0 3.0159912 1.296875q1.2347412 1.296875 1.2353058 3.28125q5.187988E-4 1.7968597 -1.0616455 2.9843597q-1.0621796 1.171875 -2.7652435 1.34375zm3.590561 -11.266327l-1.90625 0l-5.493164E-4 -1.90625l1.90625 0q1.046875 0 1.6876068 0.375q0.6563568 0.375 1.0003357 1.171875l-0.7186127 0.46875q-0.21890259 -0.53125 -0.6721039 -0.78125q-0.4532013 -0.25 -1.2969513 -0.28125l2.746582E-4 0.953125zm-0.0027313232 -9.636444l-3.25 0l0.001663208 5.9062653l-1.53125 0l-8.814255 -6.2187653l-3.8146973E-4 -1.359375l8.8125 0l-5.187988E-4 -1.84375l1.53125 0l5.187988E-4 1.84375l3.25 0l4.7302246E-4 1.671875zm-4.78125 0l-6.140625 0l6.1418304 4.25l-0.0012054443 -4.25z" fill-rule="nonzero"></path><path fill="#cfd8dc" d="m41.056446 486.58536l55.653545 -53.763763l55.65355 53.763763z" fill-rule="evenodd"></path><path stroke="#004065" stroke-width="1.0" stroke-linejoin="round" stroke-linecap="butt" d="m41.056446 486.58536l55.653545 -53.763763l55.65355 53.763763z" fill-rule="evenodd"></path><path fill="#000000" d="m93.30512 478.45505l0 1.609375l-8.984375 0q-0.015625 -0.609375 0.1875 -1.15625q0.34375 -0.921875 1.09375 -1.8125q0.765625 -0.890625 2.1875 -2.0625q2.21875 -1.8125 3.0 -2.875q0.78125 -1.0625 0.78125 -2.015625q0 -0.984375 -0.71875 -1.671875q-0.703125 -0.6875 -1.84375 -0.6875q-1.203125 0 -1.9375 0.734375q-0.71875 0.71875 -0.71875 2.0l-1.71875 -0.171875q0.171875 -1.921875 1.328125 -2.921875q1.15625 -1.015625 3.09375 -1.015625q1.953125 0 3.09375 1.09375q1.140625 1.078125 1.140625 2.6875q0 0.8125 -0.34375 1.609375q-0.328125 0.78125 -1.109375 1.65625q-0.765625 0.859375 -2.5625 2.390625q-1.5 1.265625 -1.9375 1.71875q-0.421875 0.4375 -0.703125 0.890625l6.671875 0zm2.5319672 1.609375l0 -1.90625l1.90625 0l0 1.90625l-1.90625 0zm10.542679 0l-1.671875 0l0 -10.640625q-0.59375 0.578125 -1.578125 1.15625q-0.984375 0.5625 -1.765625 0.859375l0 -1.625q1.40625 -0.65625 2.453125 -1.59375q1.046875 -0.9375 1.484375 -1.8125l1.078125 0l0 13.65625z" fill-rule="nonzero"></path><path fill="#cfd8dc" d="m152.22511 379.6016l-55.65354 53.77954l-55.653545 -53.748047z" fill-rule="evenodd"></path><path stroke="#004065" stroke-width="1.0" stroke-linejoin="round" stroke-linecap="butt" d="m152.22511 379.6016l-55.65354 53.77954l-55.653545 -53.748047z" fill-rule="evenodd"></path><path fill="#000000" d="m114.60147 389.72696l-1.671875 0.21920776q-0.28125 -1.4217834 -0.96875 -2.0466003q-0.703125 -0.6247864 -1.6875 -0.6245117q-1.1875 3.3569336E-4 -2.0 0.8130493q-0.8125 0.82836914 -0.8125 2.0314941q0 1.140625 0.765625 1.8904114q0.75 0.7497864 1.90625 0.7494507q0.46875 -1.2207031E-4 1.171875 -0.1878357l-0.1875 1.468811q-0.15625 -0.015594482 -0.265625 -0.015563965q-1.0625 3.0517578E-4 -1.90625 0.5474243q-0.859375 0.56274414 -0.859375 1.7189941q0 0.921875 0.625 1.5154419q0.609375 0.6092224 1.59375 0.60891724q0.96875 -2.4414062E-4 1.625 -0.60983276q0.640625 -0.6095581 0.828125 -1.8439636l1.671875 0.29638672q-0.296875 1.6875916 -1.375 2.6097717q-1.09375 0.9221802 -2.71875 0.92263794q-1.109375 3.0517578E-4 -2.046875 -0.48379517q-0.9375 -0.46847534 -1.421875 -1.2964783q-0.5 -0.8279724 -0.5 -1.7498474q0 -0.890625 0.46875 -1.6094971q0.46875 -0.7189026 1.40625 -1.1566467q-1.21875 -0.2652893 -1.875 -1.1557312q-0.671875 -0.8748169 -0.671875 -2.187317q0 -1.78125 1.296875 -3.0159912q1.296875 -1.2347412 3.28125 -1.2352905q1.796875 -5.187988E-4 2.984375 1.0616455q1.171875 1.0621643 1.34375 2.7652588zm-11.297592 -3.5905762l0 1.90625l-1.90625 5.493164E-4l0 -1.90625l1.90625 -5.493164E-4zm-4.245804 6.7043457q0 2.421875 -0.5 3.890747q-0.5 1.4689026 -1.46875 2.2660522q-0.984375 0.79714966 -2.46875 0.7975769q-1.09375 3.0517578E-4 -1.921875 -0.43695068q-0.828125 -0.43728638 -1.359375 -1.2808838q-0.546875 -0.8279724 -0.84375 -2.0153809q-0.3125 -1.1874084 -0.3125 -3.2186584q0 -2.390625 0.5 -3.8595276q0.484375 -1.4688721 1.46875 -2.2816467q0.96875 -0.79714966 2.46875 -0.7975769q1.96875 -5.493164E-4 3.078125 1.405365q1.359375 1.7027588 1.359375 5.530884zm-1.71875 4.8828125E-4q0 -3.34375 -0.78125 -4.4529114q-0.796875 -1.1091614 -1.9375 -1.1088257q-1.15625 3.3569336E-4 -1.9375 1.1099243q-0.78125 1.1252136 -0.78125 4.4533386q0 3.359375 0.78125 4.4685364q0.78125 1.1091614 1.953125 1.1088257q1.15625 -3.3569336E-4 1.828125 -0.9848938q0.875 -1.2346191 0.875 -4.593994z" fill-rule="nonzero"></path><path fill="#cfd8dc" d="m42.368324 377.4222l53.779526 55.653564l-53.748028 55.653534z" fill-rule="evenodd"></path><path stroke="#004065" stroke-width="1.0" stroke-linejoin="round" stroke-linecap="butt" d="m42.368324 377.4222l53.779526 55.653564l-53.748028 55.653534z" fill-rule="evenodd"></path><path fill="#000000" d="m50.51343 429.6709l-1.609375 0l-0.002544403 -8.984375q0.6093712 -0.015625 1.1563034 0.1875q0.9219742 0.34375 1.8128128 1.09375q0.8908386 0.765625 2.063118 2.1875q1.8131256 2.21875 2.8758469 3.0q1.0627213 0.78125 2.0158463 0.78125q0.984375 0 1.6716728 -0.71875q0.68730164 -0.703125 0.6869774 -1.84375q-3.3950806E-4 -1.203125 -0.7349205 -1.9375q-0.718956 -0.71875 -2.000206 -0.71875l0.17139053 -1.71875q1.9219246 0.171875 2.9222488 1.328125q1.0159531 1.15625 1.0165024 3.09375q5.531311E-4 1.953125 -1.0928764 3.09375q-1.0778008 1.140625 -2.6871758 1.140625q-0.8125 0 -1.6094742 -0.34375q-0.78134155 -0.328125 -1.6565628 -1.109375q-0.85959244 -0.765625 -2.3913498 -2.5625q-1.2660484 -1.5 -1.7192993 -1.9375q-0.43761826 -0.421875 -0.89082336 -0.703125l0.0018882751 6.671875zm-1.6086578 2.531952l1.90625 0l5.378723E-4 1.90625l-1.90625 0l-5.378723E-4 -1.90625zm1.61306 13.027069l-1.609375 0l-0.0025405884 -8.984375q0.6093674 -0.015625 1.1563034 0.1875q0.92197037 0.34375 1.812809 1.09375q0.8908386 0.765625 2.063118 2.1875q1.8131294 2.21875 2.8758507 3.0q1.0627174 0.78125 2.0158424 0.78125q0.984375 0 1.6716728 -0.71875q0.68730164 -0.703125 0.6869774 -1.84375q-3.3950806E-4 -1.203125 -0.7349205 -1.9375q-0.718956 -0.71875 -2.000206 -0.71875l0.17139053 -1.71875q1.9219246 0.171875 2.9222488 1.328125q1.0159531 1.15625 1.0165024 3.09375q5.531311E-4 1.953125 -1.0928764 3.09375q-1.0778008 1.140625 -2.6871758 1.140625q-0.8125 0 -1.6094742 -0.34375q-0.78134155 -0.328125 -1.6565628 -1.109375q-0.85959244 -0.765625 -2.3913498 -2.5625q-1.2660484 -1.5 -1.7192993 -1.9375q-0.43761826 -0.421875 -0.89082336 -0.703125l0.0018882751 6.671875z" fill-rule="nonzero"></path><path fill="#cfd8dc" d="m150.37798 488.9127l-53.779533 -55.653534l53.74804 -55.653534z" fill-rule="evenodd"></path><path stroke="#004065" stroke-width="1.0" stroke-linejoin="round" stroke-linecap="butt" d="m150.37798 488.9127l-53.779533 -55.653534l53.74804 -55.653534z" fill-rule="evenodd"></path><path fill="#000000" d="m142.23286 436.66403l1.609375 0l0.0025482178 8.984375q-0.609375 0.015625 -1.156311 -0.1875q-0.92196655 -0.34375 -1.8128052 -1.09375q-0.8908386 -0.765625 -2.0631256 -2.1875q-1.8131256 -2.21875 -2.8758392 -3.0q-1.0627289 -0.78125 -2.015854 -0.78125q-0.984375 0 -1.6716614 0.71875q-0.68730164 0.703125 -0.6869812 1.84375q3.3569336E-4 1.203125 0.7349243 1.9375q0.71894836 0.71875 2.0001984 0.71875l-0.17138672 1.71875q-1.9219208 -0.171875 -2.9222565 -1.328125q-1.0159454 -1.15625 -1.0164948 -3.09375q-5.493164E-4 -1.953125 1.0928802 -3.09375q1.0777893 -1.140625 2.6871643 -1.140625q0.8125 0 1.6094818 0.34375q0.78134155 0.328125 1.6565552 1.109375q0.8596039 0.765625 2.3913574 2.5625q1.2660522 1.5 1.7192993 1.9375q0.43762207 0.421875 0.89082336 0.703125l-0.0018920898 -6.671875zm1.6086578 -2.5319824l-1.90625 0l-5.340576E-4 -1.90625l1.90625 0l5.340576E-4 1.90625zm-1.6130524 -13.027039l1.609375 0l0.002532959 8.984375q-0.60935974 0.015625 -1.1562958 -0.1875q-0.9219818 -0.34375 -1.8128052 -1.09375q-0.8908539 -0.765625 -2.0631256 -2.1875q-1.8131256 -2.21875 -2.8758545 -3.0q-1.0627136 -0.78125 -2.0158386 -0.78125q-0.984375 0 -1.6716766 0.71875q-0.68730164 0.703125 -0.6869812 1.84375q3.5095215E-4 1.203125 0.7349243 1.9375q0.7189636 0.71875 2.0002136 0.71875l-0.17140198 1.71875q-1.9219208 -0.171875 -2.9222412 -1.328125q-1.0159607 -1.15625 -1.01651 -3.09375q-5.493164E-4 -1.953125 1.0928802 -3.09375q1.0778046 -1.140625 2.6871796 -1.140625q0.8125 0 1.6094666 0.34375q0.78134155 0.328125 1.6565704 1.109375q0.8595886 0.765625 2.3913422 2.5625q1.2660522 1.5 1.7192993 1.9375q0.43762207 0.421875 0.89082336 0.703125l-0.001876831 -6.671875z" fill-rule="nonzero"></path></g></svg>

